<svg width="23" height="27" viewBox="0 0 23 27" fill="none" xmlns="http://www.w3.org/2000/svg">
<path d="M20.897 11.2967H20.1251V11.25H11.5001V15.75H16.9161C16.126 18.3696 14.0028 20.25 11.5001 20.25C8.32464 20.25 5.75008 17.2277 5.75008 13.5C5.75008 9.77231 8.32464 6.75 11.5001 6.75C12.9659 6.75 14.2994 7.39913 15.3147 8.45944L18.0254 5.27738C16.3138 3.40481 14.0243 2.25 11.5001 2.25C6.20769 2.25 1.91675 7.28719 1.91675 13.5C1.91675 19.7128 6.20769 24.75 11.5001 24.75C16.7925 24.75 21.0834 19.7128 21.0834 13.5C21.0834 12.7457 21.0173 12.0094 20.897 11.2967Z" fill="#FFC107"/>
<path d="M3.02173 8.26369L6.17033 10.9744C7.02229 8.49825 9.08558 6.75 11.5001 6.75C12.9659 6.75 14.2994 7.39913 15.3147 8.45944L18.0254 5.27738C16.3138 3.40481 14.0244 2.25 11.5001 2.25C7.81914 2.25 4.62694 4.68956 3.02173 8.26369Z" fill="#FF3D00"/>
<path d="M11.5001 24.75C13.9754 24.75 16.2247 23.6379 17.9252 21.8295L14.9592 18.8831C13.9647 19.771 12.7495 20.2512 11.5001 20.25C9.00744 20.25 6.89096 18.3842 6.09363 15.7804L2.96851 18.6069C4.55455 22.2502 7.77551 24.75 11.5001 24.75Z" fill="#4CAF50"/>
<path d="M20.8969 11.2967H20.125V11.25H11.5V15.75H16.916C16.5381 16.9967 15.8572 18.0862 14.9577 18.8837L14.9591 18.8826L17.9251 21.8289C17.7153 22.0528 21.0833 19.125 21.0833 13.5C21.0833 12.7457 21.0172 12.0094 20.8969 11.2967Z" fill="#1976D2"/>
</svg>
