<svg width="280" height="221" viewBox="0 0 280 221" fill="none" xmlns="http://www.w3.org/2000/svg">
<path d="M280 193.976H0V194.121H280V193.976Z" fill="#E0E0E0"/>
<path d="M212.425 199.301H193.161V199.446H212.425V199.301Z" fill="#E0E0E0"/>
<path d="M235.088 198.891H224.246V199.036H235.088V198.891Z" fill="#E0E0E0"/>
<path d="M138.51 199.232H124.13V199.376H138.51V199.232Z" fill="#E0E0E0"/>
<path d="M148.898 201.282H139.076V201.427H148.898V201.282Z" fill="#E0E0E0"/>
<path d="M81.0152 197.771H51.3408V197.915H81.0152V197.771Z" fill="#E0E0E0"/>
<path d="M132.72 168.217H24.5897C23.7426 168.215 22.9307 167.867 22.3323 167.249C21.7338 166.63 21.3977 165.792 21.3977 164.919V8.1495C21.4051 7.28085 21.7445 6.45028 22.3421 5.8382C22.9398 5.22611 23.7474 4.88195 24.5897 4.88046H132.72C133.568 4.88046 134.381 5.22792 134.981 5.8464C135.581 6.46488 135.918 7.30371 135.918 8.17838V164.919C135.918 165.793 135.581 166.632 134.981 167.251C134.381 167.869 133.568 168.217 132.72 168.217ZM24.5897 4.99598C23.7798 4.99751 23.0035 5.33043 22.4313 5.92166C21.8591 6.51289 21.5377 7.31413 21.5377 8.1495V164.919C21.5377 165.754 21.8591 166.555 22.4313 167.147C23.0035 167.738 23.7798 168.071 24.5897 168.072H132.72C133.531 168.071 134.307 167.738 134.881 167.147C135.454 166.556 135.776 165.755 135.778 164.919V8.1495C135.776 7.3136 135.454 6.51238 134.881 5.92131C134.307 5.33024 133.531 4.9975 132.72 4.99598H24.5897Z" fill="#E0E0E0"/>
<path d="M253.854 168.217H145.718C144.87 168.215 144.058 167.867 143.458 167.249C142.859 166.631 142.521 165.793 142.52 164.919V8.1495C142.529 7.28032 142.869 6.44976 143.468 5.83784C144.067 5.22591 144.875 4.88193 145.718 4.88046H253.854C254.695 4.88347 255.501 5.2283 256.098 5.84022C256.694 6.45214 257.033 7.28185 257.04 8.1495V164.919C257.04 165.791 256.705 166.629 256.107 167.247C255.51 167.865 254.7 168.214 253.854 168.217ZM145.718 4.99598C144.907 4.9975 144.13 5.33024 143.557 5.92131C142.984 6.51238 142.661 7.3136 142.66 8.1495V164.919C142.661 165.755 142.984 166.556 143.557 167.147C144.13 167.738 144.907 168.071 145.718 168.072H253.854C254.664 168.071 255.441 167.738 256.014 167.147C256.587 166.556 256.91 165.755 256.911 164.919V8.1495C256.91 7.3136 256.587 6.51238 256.014 5.92131C255.441 5.33024 254.664 4.9975 253.854 4.99598H145.718Z" fill="#E0E0E0"/>
<path d="M243.057 18.898H158.665V93.7277H243.057V18.898Z" fill="#E0E0E0"/>
<path d="M244.933 18.898H160.541V93.7277H244.933V18.898Z" fill="#F0F0F0"/>
<path d="M241.567 90.2161V22.4096L163.906 22.4096V90.2161H241.567Z" fill="#FAFAFA"/>
<path d="M216.748 90.2161V22.4097H211.674V90.2161H216.748Z" fill="#E0E0E0"/>
<path d="M190.058 90.2161V22.4096H184.985V90.2161H190.058Z" fill="#E0E0E0"/>
<path d="M218.534 92.4398V19.7933H213.461V92.4398H218.534Z" fill="#F0F0F0"/>
<path d="M191.839 92.4456V19.7991H186.766V92.4456H191.839Z" fill="#F0F0F0"/>
<path d="M241.567 90.2103V22.4039H240.15V90.2103H241.567Z" fill="#E0E0E0"/>
<path d="M99.3102 77.9948C99.3102 77.9948 89.0398 59.7494 103.292 45.2005C103.292 45.2005 107.01 47.7013 106.954 51.0628C106.898 54.4242 102.967 55.2733 103.813 58.0802C104.658 60.8872 108.36 63.6307 105.929 65.9525C103.499 68.2743 106.321 70.3305 106.159 73.1721C105.997 76.0137 99.3102 77.9948 99.3102 77.9948Z" fill="#E0E0E0"/>
<path d="M100.923 80.9808C100.923 80.9808 105.09 60.3154 87.1248 51.1552C87.1248 51.1552 84.3584 54.7361 85.4448 57.907C86.5312 61.0778 90.5128 60.6042 90.5688 63.5441C90.6248 66.4839 87.9536 70.2958 90.9664 71.7051C93.9792 73.1144 91.9352 75.9906 92.96 78.6359C93.9848 81.2812 100.923 80.9808 100.923 80.9808Z" fill="#E6E6E6"/>
<path d="M91.7782 75.7307C91.7782 75.7307 91.9574 93.5718 98.8734 93.5718C105.789 93.5718 105.963 75.7307 105.963 75.7307H91.7782Z" fill="#F0F0F0"/>
<path d="M50.2265 86.8605C50.2265 86.8605 50.6129 93.5718 65.3801 93.5718C80.1473 93.5718 80.5393 86.8605 80.5393 86.8605H50.2265Z" fill="#E6E6E6"/>
<path d="M205.912 127.325H198.117C197.146 127.325 196.359 128.137 196.359 129.138V142.434C196.359 143.436 197.146 144.248 198.117 144.248H205.912C206.883 144.248 207.671 143.436 207.671 142.434V129.138C207.671 128.137 206.883 127.325 205.912 127.325Z" fill="#F0F0F0"/>
<path d="M226.587 132.858H221.34C220.687 132.858 220.158 133.404 220.158 134.077V143.029C220.158 143.702 220.687 144.248 221.34 144.248H226.587C227.24 144.248 227.769 143.702 227.769 143.029V134.077C227.769 133.404 227.24 132.858 226.587 132.858Z" fill="#E6E6E6"/>
<path d="M227.371 131.755H220.556C220.336 131.755 220.158 131.938 220.158 132.165V132.627C220.158 132.853 220.336 133.037 220.556 133.037H227.371C227.591 133.037 227.769 132.853 227.769 132.627V132.165C227.769 131.938 227.591 131.755 227.371 131.755Z" fill="#F0F0F0"/>
<path d="M178.316 134.833C178.316 134.833 178.596 144.248 189.286 144.248C199.976 144.248 200.262 134.833 200.262 134.833H178.316Z" fill="#E6E6E6"/>
<path d="M151.726 122.398H167.905V119.106H151.726V122.398Z" fill="#E0E0E0"/>
<path d="M248.337 119.112H167.905V122.404H248.337V119.112Z" fill="#F0F0F0"/>
<path d="M151.726 147.54H167.905V144.248H151.726V147.54Z" fill="#E0E0E0"/>
<path d="M248.337 144.248H167.905V147.54H248.337V144.248Z" fill="#F0F0F0"/>
<path d="M157.556 122.398H154.571V193.97H157.556V122.398Z" fill="#E0E0E0"/>
<path d="M170.889 122.398H167.905V193.97H170.889V122.398Z" fill="#F0F0F0"/>
<path d="M237.989 122.398H235.004V193.97H237.989V122.398Z" fill="#E0E0E0"/>
<path d="M248.338 122.398H245.353V193.97H248.338V122.398Z" fill="#F0F0F0"/>
<path d="M50.2264 97.7591H34.9272V189.644H50.2264V97.7591Z" fill="#E6E6E6"/>
<path d="M113.31 189.639H37.8672V193.976H113.31V189.639Z" fill="#E6E6E6"/>
<path d="M50.2261 189.639H116.245L116.245 97.7534L50.2261 97.7534L50.2261 189.639Z" fill="#F0F0F0"/>
<path d="M56.2408 154.921H110.23V132.477H56.2408V154.921Z" fill="#E6E6E6"/>
<path d="M56.2408 181.455H110.23V159.01H56.2408V181.455Z" fill="#E6E6E6"/>
<path d="M89.2977 134.937H77.1737C76.7791 134.936 76.4011 134.773 76.122 134.486C75.843 134.198 75.6856 133.808 75.6841 133.401C75.6841 132.993 75.8409 132.602 76.1201 132.312C76.3993 132.023 76.7781 131.86 77.1737 131.859H89.2977C89.6933 131.86 90.0722 132.023 90.3514 132.312C90.6306 132.602 90.7873 132.993 90.7873 133.401C90.7858 133.808 90.6284 134.198 90.3494 134.486C90.0704 134.773 89.6923 134.936 89.2977 134.937Z" fill="#F0F0F0"/>
<path d="M56.2408 128.382H110.23V105.938H56.2408V128.382Z" fill="#E6E6E6"/>
<path d="M89.2977 108.404H77.1737C76.7781 108.402 76.3993 108.239 76.1201 107.95C75.8409 107.661 75.6841 107.27 75.6841 106.862C75.6856 106.455 75.843 106.065 76.122 105.777C76.4011 105.489 76.7791 105.327 77.1737 105.325H89.2977C89.6923 105.327 90.0704 105.489 90.3494 105.777C90.6284 106.065 90.7858 106.455 90.7873 106.862C90.7873 107.27 90.6306 107.661 90.3514 107.95C90.0722 108.239 89.6933 108.402 89.2977 108.404Z" fill="#F0F0F0"/>
<path d="M89.2977 161.471H77.1737C76.7791 161.469 76.4011 161.307 76.122 161.019C75.843 160.731 75.6856 160.341 75.6841 159.934C75.6841 159.526 75.8409 159.135 76.1201 158.846C76.3993 158.557 76.7781 158.394 77.1737 158.392H89.2977C89.6933 158.394 90.0722 158.557 90.3514 158.846C90.6306 159.135 90.7873 159.526 90.7873 159.934C90.7858 160.341 90.6284 160.731 90.3494 161.019C90.0704 161.307 89.6923 161.469 89.2977 161.471Z" fill="#F0F0F0"/>
<path d="M118.283 93.5718H50.2265V97.7592H118.283V93.5718Z" fill="#E6E6E6"/>
<path d="M32.7881 97.7534H50.2265V93.566H32.7881V97.7534Z" fill="#E0E0E0"/>
<path d="M67.2784 22.4096H42.5264V50.4448H67.2784V22.4096Z" fill="#E6E6E6"/>
<path d="M69.9608 22.4096H44.3912V50.4448H69.9608V22.4096Z" fill="#F0F0F0"/>
<path d="M67.8162 48.2327V24.6159H46.5306V48.2327H67.8162Z" fill="#FAFAFA"/>
<path d="M62.6584 42.509V30.3397H51.6936V42.509H62.6584Z" fill="#F0F0F0"/>
<path d="M93.3746 14.1331H74.6034V34.9313H93.3746V14.1331Z" fill="#E6E6E6"/>
<path d="M95.368 14.1331H76.4008V34.9313H95.368V14.1331Z" fill="#F0F0F0"/>
<path d="M93.7778 33.291V15.7734L77.9914 15.7734V33.291H93.7778Z" fill="#FAFAFA"/>
<path d="M85.8816 20.0994L81.564 27.8157H90.1992L85.8816 20.0994Z" fill="#F0F0F0"/>
<path d="M140 220.059C199.966 220.059 248.578 217.132 248.578 213.521C248.578 209.91 199.966 206.983 140 206.983C80.0337 206.983 31.4215 209.91 31.4215 213.521C31.4215 217.132 80.0337 220.059 140 220.059Z" fill="#F5F5F5"/>
<path d="M235.088 57.3352H180.152C177.254 57.3352 174.905 59.7581 174.905 62.747V78.1565C174.905 81.1454 177.254 83.5683 180.152 83.5683H235.088C237.986 83.5683 240.335 81.1454 240.335 78.1565V62.747C240.335 59.7581 237.986 57.3352 235.088 57.3352Z" fill="#407BFF"/>
<path d="M224.19 61.7593H181.277C180.77 61.7593 180.359 62.1834 180.359 62.7066V63.7462C180.359 64.2693 180.77 64.6934 181.277 64.6934H224.19C224.697 64.6934 225.109 64.2693 225.109 63.7462V62.7066C225.109 62.1834 224.697 61.7593 224.19 61.7593Z" fill="#407BFF"/>
<path d="M210.599 68.8288H181.277C180.77 68.8288 180.359 69.2529 180.359 69.776V70.8156C180.359 71.3388 180.77 71.7628 181.277 71.7628H210.599C211.106 71.7628 211.517 71.3388 211.517 70.8156V69.776C211.517 69.2529 211.106 68.8288 210.599 68.8288Z" fill="#407BFF"/>
<path d="M202.737 75.8982H181.277C180.77 75.8982 180.359 76.3223 180.359 76.8454V77.885C180.359 78.4082 180.77 78.8323 181.277 78.8323H202.737C203.244 78.8323 203.655 78.4082 203.655 77.885V76.8454C203.655 76.3223 203.244 75.8982 202.737 75.8982Z" fill="#407BFF"/>
<path d="M229.331 75.8982H207.872C207.365 75.8982 206.953 76.3223 206.953 76.8454V77.885C206.953 78.4082 207.365 78.8323 207.872 78.8323H229.331C229.838 78.8323 230.249 78.4082 230.249 77.885V76.8454C230.249 76.3223 229.838 75.8982 229.331 75.8982Z" fill="#407BFF"/>
<g opacity="0.5">
<path d="M224.19 61.7593H181.277C180.77 61.7593 180.359 62.1834 180.359 62.7066V63.7462C180.359 64.2693 180.77 64.6934 181.277 64.6934H224.19C224.697 64.6934 225.109 64.2693 225.109 63.7462V62.7066C225.109 62.1834 224.697 61.7593 224.19 61.7593Z" fill="white"/>
<path d="M210.599 68.8288H181.277C180.77 68.8288 180.359 69.2529 180.359 69.776V70.8156C180.359 71.3388 180.77 71.7628 181.277 71.7628H210.599C211.106 71.7628 211.517 71.3388 211.517 70.8156V69.776C211.517 69.2529 211.106 68.8288 210.599 68.8288Z" fill="white"/>
<path d="M202.737 75.8982H181.277C180.77 75.8982 180.359 76.3223 180.359 76.8454V77.885C180.359 78.4082 180.77 78.8322 181.277 78.8322H202.737C203.244 78.8322 203.655 78.4082 203.655 77.885V76.8454C203.655 76.3223 203.244 75.8982 202.737 75.8982Z" fill="white"/>
<path d="M229.331 75.8982H207.872C207.364 75.8982 206.953 76.3223 206.953 76.8454V77.885C206.953 78.4082 207.364 78.8322 207.872 78.8322H229.331C229.838 78.8322 230.249 78.4082 230.249 77.885V76.8454C230.249 76.3223 229.838 75.8982 229.331 75.8982Z" fill="white"/>
</g>
<path d="M191.083 51.2187H128.727C124.478 51.2187 121.033 54.7717 121.033 59.1545V81.749C121.033 86.1318 124.478 89.6848 128.727 89.6848H191.083C195.333 89.6848 198.778 86.1318 198.778 81.749V59.1545C198.778 54.7717 195.333 51.2187 191.083 51.2187Z" fill="#407BFF"/>
<path d="M193.29 57.7048H130.379C129.634 57.7048 129.03 58.328 129.03 59.0967V60.6158C129.03 61.3845 129.634 62.0077 130.379 62.0077H193.29C194.035 62.0077 194.639 61.3845 194.639 60.6158V59.0967C194.639 58.328 194.035 57.7048 193.29 57.7048Z" fill="#407BFF"/>
<path d="M173.359 68.0722H130.379C129.634 68.0722 129.03 68.6954 129.03 69.4641V70.9831C129.03 71.7518 129.634 72.375 130.379 72.375H173.359C174.105 72.375 174.709 71.7518 174.709 70.9831V69.4641C174.709 68.6954 174.105 68.0722 173.359 68.0722Z" fill="#407BFF"/>
<path d="M161.834 78.4395H130.379C129.634 78.4395 129.03 79.0627 129.03 79.8314V81.3504C129.03 82.1192 129.634 82.7424 130.379 82.7424H161.834C162.58 82.7424 163.184 82.1192 163.184 81.3504V79.8314C163.184 79.0627 162.58 78.4395 161.834 78.4395Z" fill="#407BFF"/>
<path d="M195.58 78.4395H169.372C168.627 78.4395 168.022 79.0627 168.022 79.8314V81.3504C168.022 82.1192 168.627 82.7424 169.372 82.7424H195.58C196.325 82.7424 196.93 82.1192 196.93 81.3504V79.8314C196.93 79.0627 196.325 78.4395 195.58 78.4395Z" fill="#407BFF"/>
<g opacity="0.5">
<path d="M193.29 57.7048H130.379C129.634 57.7048 129.03 58.328 129.03 59.0967V60.6158C129.03 61.3845 129.634 62.0077 130.379 62.0077H193.29C194.035 62.0077 194.639 61.3845 194.639 60.6158V59.0967C194.639 58.328 194.035 57.7048 193.29 57.7048Z" fill="white"/>
<path d="M173.359 68.0722H130.379C129.634 68.0722 129.03 68.6953 129.03 69.4641V70.9831C129.03 71.7518 129.634 72.375 130.379 72.375H173.359C174.105 72.375 174.709 71.7518 174.709 70.9831V69.4641C174.709 68.6953 174.105 68.0722 173.359 68.0722Z" fill="white"/>
<path d="M161.834 78.4395H130.379C129.634 78.4395 129.03 79.0627 129.03 79.8314V81.3504C129.03 82.1192 129.634 82.7424 130.379 82.7424H161.834C162.58 82.7424 163.184 82.1192 163.184 81.3504V79.8314C163.184 79.0627 162.58 78.4395 161.834 78.4395Z" fill="white"/>
<path d="M195.58 78.4395H169.372C168.627 78.4395 168.022 79.0627 168.022 79.8314V81.3504C168.022 82.1192 168.627 82.7424 169.372 82.7424H195.58C196.325 82.7424 196.93 82.1192 196.93 81.3504V79.8314C196.93 79.0627 196.325 78.4395 195.58 78.4395Z" fill="white"/>
</g>
<path d="M152.315 96.656H122.282C120.296 96.656 118.687 98.3161 118.687 100.364V146.766C118.687 148.814 120.296 150.474 122.282 150.474H152.315C154.3 150.474 155.91 148.814 155.91 146.766V100.364C155.91 98.3161 154.3 96.656 152.315 96.656Z" fill="#407BFF"/>
<path opacity="0.4" d="M152.315 96.656H122.282C120.296 96.656 118.687 98.3161 118.687 100.364V146.766C118.687 148.814 120.296 150.474 122.282 150.474H152.315C154.3 150.474 155.91 148.814 155.91 146.766V100.364C155.91 98.3161 154.3 96.656 152.315 96.656Z" fill="black"/>
<path d="M150.937 102.27H123.654C123.289 102.27 122.993 102.575 122.993 102.951V103.974C122.993 104.35 123.289 104.655 123.654 104.655H150.937C151.302 104.655 151.598 104.35 151.598 103.974V102.951C151.598 102.575 151.302 102.27 150.937 102.27Z" fill="#FAFAFA"/>
<path d="M142.251 108.011H123.654C123.289 108.011 122.993 108.316 122.993 108.693V109.715C122.993 110.091 123.289 110.396 123.654 110.396H142.251C142.616 110.396 142.912 110.091 142.912 109.715V108.693C142.912 108.316 142.616 108.011 142.251 108.011Z" fill="#FAFAFA"/>
<path d="M150.937 113.758H123.654C123.289 113.758 122.993 114.063 122.993 114.439V115.462C122.993 115.838 123.289 116.143 123.654 116.143H150.937C151.302 116.143 151.598 115.838 151.598 115.462V114.439C151.598 114.063 151.302 113.758 150.937 113.758Z" fill="#FAFAFA"/>
<path d="M133.795 119.499H123.654C123.289 119.499 122.993 119.804 122.993 120.18V121.203C122.993 121.579 123.289 121.884 123.654 121.884H133.795C134.16 121.884 134.456 121.579 134.456 121.203V120.18C134.456 119.804 134.16 119.499 133.795 119.499Z" fill="#FAFAFA"/>
<path d="M147.986 119.499H137.844C137.479 119.499 137.183 119.804 137.183 120.18V121.203C137.183 121.579 137.479 121.884 137.844 121.884H147.986C148.351 121.884 148.646 121.579 148.646 121.203V120.18C148.646 119.804 148.351 119.499 147.986 119.499Z" fill="#FAFAFA"/>
<path d="M150.937 125.246H123.654C123.289 125.246 122.993 125.551 122.993 125.927V126.949C122.993 127.326 123.289 127.631 123.654 127.631H150.937C151.302 127.631 151.598 127.326 151.598 126.949V125.927C151.598 125.551 151.302 125.246 150.937 125.246Z" fill="#FAFAFA"/>
<path d="M150.937 130.987H123.654C123.289 130.987 122.993 131.292 122.993 131.668V132.69C122.993 133.067 123.289 133.372 123.654 133.372H150.937C151.302 133.372 151.598 133.067 151.598 132.69V131.668C151.598 131.292 151.302 130.987 150.937 130.987Z" fill="#FAFAFA"/>
<path d="M146.099 136.733H123.654C123.289 136.733 122.993 137.039 122.993 137.415V138.437C122.993 138.814 123.289 139.119 123.654 139.119H146.099C146.463 139.119 146.759 138.814 146.759 138.437V137.415C146.759 137.039 146.463 136.733 146.099 136.733Z" fill="#FAFAFA"/>
<path d="M134.126 142.474H123.654C123.289 142.474 122.993 142.78 122.993 143.156V144.178C122.993 144.555 123.289 144.86 123.654 144.86H134.126C134.491 144.86 134.787 144.555 134.787 144.178V143.156C134.787 142.78 134.491 142.474 134.126 142.474Z" fill="#FAFAFA"/>
<path d="M160.44 96.3268H118.782L137.2 111.442L165.441 122.416V101.473C165.438 100.107 164.91 98.7981 163.972 97.8334C163.035 96.8686 161.764 96.3268 160.44 96.3268Z" fill="#407BFF"/>
<path opacity="0.4" d="M160.44 96.3268H118.782L137.2 111.442L165.441 122.416V101.473C165.438 100.107 164.91 98.7981 163.972 97.8334C163.035 96.8686 161.764 96.3268 160.44 96.3268Z" fill="black"/>
<path d="M158.62 104.112H128.139C127.682 104.112 127.311 104.495 127.311 104.967V106.561C127.311 107.033 127.682 107.416 128.139 107.416H158.62C159.078 107.416 159.449 107.033 159.449 106.561V104.967C159.449 104.495 159.078 104.112 158.62 104.112Z" fill="#FAFAFA"/>
<path d="M232.484 137.242V107.023C232.484 104.708 230.664 102.83 228.418 102.83H177.542C175.297 102.83 173.477 104.708 173.477 107.023V137.242C173.477 139.558 175.297 141.435 177.542 141.435H228.418C230.664 141.435 232.484 139.558 232.484 137.242Z" fill="#407BFF"/>
<path d="M241.774 127.666V97.4473C241.774 95.1315 239.954 93.2541 237.709 93.2541H186.833C184.587 93.2541 182.767 95.1315 182.767 97.4473V127.666C182.767 129.981 184.587 131.859 186.833 131.859H237.709C239.954 131.859 241.774 129.981 241.774 127.666Z" fill="#407BFF"/>
<path opacity="0.5" d="M241.774 127.666V97.4473C241.774 95.1315 239.954 93.2541 237.709 93.2541H186.833C184.587 93.2541 182.767 95.1315 182.767 97.4473V127.666C182.767 129.981 184.587 131.859 186.833 131.859H237.709C239.954 131.859 241.774 129.981 241.774 127.666Z" fill="white"/>
<path d="M236.611 117.31V98.7063C236.611 97.676 235.802 96.8408 234.803 96.8408H218.176C217.177 96.8408 216.367 97.676 216.367 98.7063V117.31C216.367 118.34 217.177 119.175 218.176 119.175H234.803C235.802 119.175 236.611 118.34 236.611 117.31Z" fill="#407BFF"/>
<path opacity="0.7" d="M236.611 117.31V98.7063C236.611 97.676 235.802 96.8408 234.803 96.8408H218.176C217.177 96.8408 216.367 97.676 216.367 98.7063V117.31C216.367 118.34 217.177 119.175 218.176 119.175H234.803C235.802 119.175 236.611 118.34 236.611 117.31Z" fill="white"/>
<path d="M213.198 126.308V112.054C213.198 111.263 212.576 110.622 211.809 110.622H199.069C198.302 110.622 197.68 111.263 197.68 112.054V126.308C197.68 127.099 198.302 127.741 199.069 127.741H211.809C212.576 127.741 213.198 127.099 213.198 126.308Z" fill="#407BFF"/>
<path opacity="0.3" d="M213.198 126.308V112.054C213.198 111.263 212.576 110.622 211.809 110.622H199.069C198.302 110.622 197.68 111.263 197.68 112.054V126.308C197.68 127.099 198.302 127.741 199.069 127.741H211.809C212.576 127.741 213.198 127.099 213.198 126.308Z" fill="white"/>
<path d="M205.436 35.9305V28.2315C205.436 25.8775 203.586 23.9691 201.303 23.9691L64.5904 23.9691C62.308 23.9691 60.4576 25.8775 60.4576 28.2315V35.9305C60.4576 38.2846 62.308 40.193 64.5904 40.193L201.303 40.193C203.586 40.193 205.436 38.2846 205.436 35.9305Z" fill="#407BFF"/>
<path opacity="0.5" d="M205.436 35.9305V28.2315C205.436 25.8775 203.586 23.9691 201.303 23.9691L64.5904 23.9691C62.308 23.9691 60.4576 25.8775 60.4576 28.2315V35.9305C60.4576 38.2846 62.308 40.193 64.5904 40.193L201.303 40.193C203.586 40.193 205.436 38.2846 205.436 35.9305Z" fill="white"/>
<path d="M179.57 42.9075V37.3224H140.23V42.9075H179.57Z" fill="#407BFF"/>
<path opacity="0.5" d="M179.57 42.9075V37.3224H140.23V42.9075H179.57Z" fill="white"/>
<path d="M219.542 11.9614V4.26245C219.542 1.90837 217.692 0 215.41 0L78.6967 0C76.4142 0 74.5639 1.90837 74.5639 4.26245V11.9614C74.5639 14.3155 76.4142 16.2239 78.6967 16.2239L215.41 16.2239C217.692 16.2239 219.542 14.3155 219.542 11.9614Z" fill="#407BFF"/>
<path d="M73.0014 85.3126C72.5086 86.4677 71.9654 87.7152 71.4894 88.9339C71.0134 90.1526 70.5206 91.4059 70.0894 92.6535C69.2047 95.0855 68.4953 97.5816 67.967 100.121L67.8046 101.046L67.7486 101.392C67.7486 101.49 67.7486 101.617 67.715 101.733C67.6937 102.295 67.705 102.858 67.7486 103.419C67.855 104.638 68.0454 105.943 68.3086 107.249C68.779 109.865 69.3782 112.562 69.9886 115.219L67.1158 116.374C65.7767 113.856 64.6362 111.232 63.7054 108.525C63.2151 107.116 62.8184 105.675 62.5182 104.211C62.35 103.4 62.2452 102.578 62.2046 101.75C62.2046 101.519 62.2046 101.3 62.2046 101.051C62.2046 100.803 62.2046 100.526 62.2438 100.364L62.3558 99.2089C62.5232 97.7212 62.7794 96.2456 63.123 94.7905C63.4366 93.3465 63.8398 91.943 64.243 90.5569C64.6462 89.1707 65.1502 87.8077 65.6822 86.4677C65.9454 85.7977 66.2422 85.1335 66.4998 84.4693C66.7574 83.8051 67.0598 83.1698 67.4182 82.4594L73.0014 85.3126Z" fill="#E4897B"/>
<path d="M69.8374 114.439L72.0214 116.64L67.2558 118.95C67.2558 118.95 66.1022 116.865 66.903 114.982L69.8374 114.439Z" fill="#E4897B"/>
<path d="M73.7855 119.915L69.7591 121.613L67.2615 118.927L72.0215 116.64L73.7855 119.915Z" fill="#E4897B"/>
<path opacity="0.4" d="M155.349 117.547C147.426 116.629 139.944 113.309 133.85 108.007C127.755 102.704 123.322 95.6572 121.11 87.7565C118.899 79.8558 119.008 71.4562 121.424 63.6195C123.84 55.7828 128.455 48.8608 134.685 43.7288C140.915 38.5967 148.481 35.4848 156.425 34.7867C164.37 34.0885 172.336 35.8353 179.318 39.8063C186.3 43.7773 191.984 49.7942 195.651 57.0963C199.318 64.3984 200.804 72.6579 199.92 80.8306C199.333 86.2606 197.714 91.518 195.156 96.3023C192.598 101.087 189.151 105.304 185.011 108.714C180.872 112.124 176.122 114.659 171.033 116.174C165.943 117.69 160.614 118.156 155.349 117.547Z" fill="#FAFAFA"/>
<path opacity="0.4" d="M184.682 43.4562L123.362 93.9876C123.105 93.4101 122.853 92.8325 122.618 92.2549C121.08 88.4836 120.097 84.4969 119.7 80.4263L172.665 36.7795C177.013 38.2755 181.079 40.5342 184.682 43.4562Z" fill="#FAFAFA"/>
<path opacity="0.4" d="M198.834 65.5944L141.182 113.099C135.705 110.155 130.959 105.949 127.311 100.809L190.26 48.9315C194.318 53.7351 197.251 59.4361 198.834 65.5944Z" fill="#FAFAFA"/>
<path d="M114.458 60.327L113.926 60.1422C114.848 57.3381 116.006 54.6227 117.387 52.0273L117.874 52.3046C116.511 54.8709 115.368 57.5553 114.458 60.327ZM121.257 46.8465L120.803 46.5058C125.405 40.0878 131.428 34.8975 138.37 31.3677L138.622 31.8875C131.759 35.3809 125.805 40.5157 121.257 46.8639V46.8465ZM182.627 32.6788C180.797 31.6665 178.904 30.7808 176.96 30.0278L177.161 29.4848C179.125 30.2556 181.036 31.1585 182.885 32.1879L182.627 32.6788Z" fill="#407BFF"/>
<path opacity="0.3" d="M114.458 60.327L113.926 60.1422C114.848 57.3381 116.006 54.6227 117.387 52.0273L117.874 52.3046C116.511 54.8709 115.368 57.5553 114.458 60.327ZM121.257 46.8465L120.803 46.5058C125.405 40.0878 131.428 34.8975 138.37 31.3677L138.622 31.8875C131.759 35.3809 125.805 40.5157 121.257 46.8639V46.8465ZM182.627 32.6788C180.797 31.6665 178.904 30.7808 176.96 30.0278L177.161 29.4848C179.125 30.2556 181.036 31.1585 182.885 32.1879L182.627 32.6788Z" fill="black"/>
<path d="M201.527 54.9787C196.342 43.8867 187.217 35.2781 176.043 30.9375C164.87 26.5969 152.506 26.8572 141.514 31.6645C130.522 36.4718 121.745 45.4574 117.003 56.7584C112.261 68.0595 111.917 80.8093 116.043 92.3646C112.302 93.7162 108.606 95.1659 104.933 96.6618C99.6351 98.8296 94.386 101.094 89.1855 103.454C83.9887 105.828 78.8143 108.248 73.6903 110.778C71.1199 112.019 68.5831 113.33 66.0239 114.601C64.6926 115.191 63.4863 116.045 62.4735 117.113C61.9254 117.705 61.4427 118.358 61.0343 119.06C60.5359 119.89 60.1586 120.791 59.9143 121.734C59.4929 123.434 59.6751 125.233 60.428 126.806C61.1809 128.379 62.4547 129.622 64.0191 130.311C64.8878 130.687 65.8044 130.932 66.7407 131.039C67.5315 131.131 68.3299 131.131 69.1207 131.039C70.5578 130.859 71.9467 130.39 73.2087 129.658C75.7455 128.336 78.2991 127.059 80.8191 125.702C85.8591 123.051 90.8991 120.284 95.8775 117.477C100.856 114.67 105.84 111.73 110.701 108.716C114.061 106.619 117.454 104.476 120.781 102.235C127.168 112.635 137.19 120.102 148.77 123.089C160.35 126.075 172.601 124.352 182.982 118.277C193.364 112.202 201.082 102.24 204.537 90.4561C207.991 78.6719 206.918 65.9687 201.538 54.9787H201.527ZM176.069 110.154C169.562 113.467 162.247 114.715 155.051 113.741C147.855 112.767 141.101 109.614 135.643 104.681C130.184 99.7482 126.266 93.2567 124.385 86.0274C122.503 78.798 122.742 71.1556 125.072 64.0665C127.401 56.9773 131.717 50.7597 137.472 46.1999C143.228 41.6402 150.165 38.943 157.407 38.4493C164.649 37.9557 171.87 39.6879 178.157 43.4268C184.444 47.1657 189.516 52.7435 192.729 59.4548C194.864 63.9119 196.126 68.7589 196.444 73.7191C196.762 78.6793 196.129 83.6555 194.582 88.3635C193.035 93.0715 190.604 97.4191 187.427 101.158C184.251 104.897 180.391 107.953 176.069 110.154Z" fill="#407BFF"/>
<path opacity="0.3" d="M201.527 54.9787C196.342 43.8867 187.217 35.2781 176.043 30.9375C164.87 26.5969 152.506 26.8572 141.514 31.6645C130.522 36.4718 121.745 45.4574 117.003 56.7584C112.261 68.0595 111.917 80.8093 116.043 92.3646C112.302 93.7162 108.606 95.1659 104.933 96.6618C99.6351 98.8296 94.386 101.094 89.1855 103.454C83.9887 105.828 78.8143 108.248 73.6903 110.778C71.1199 112.019 68.5831 113.33 66.0239 114.601C64.6926 115.191 63.4863 116.045 62.4735 117.113C61.9254 117.705 61.4427 118.358 61.0343 119.06C60.5359 119.89 60.1586 120.791 59.9143 121.734C59.4929 123.434 59.6751 125.233 60.428 126.806C61.1809 128.379 62.4547 129.622 64.0191 130.311C64.8878 130.687 65.8044 130.932 66.7407 131.039C67.5315 131.131 68.3299 131.131 69.1207 131.039C70.5578 130.859 71.9467 130.39 73.2087 129.658C75.7455 128.336 78.2991 127.059 80.8191 125.702C85.8591 123.051 90.8991 120.284 95.8775 117.477C100.856 114.67 105.84 111.73 110.701 108.716C114.061 106.619 117.454 104.476 120.781 102.235C127.168 112.635 137.19 120.102 148.77 123.089C160.35 126.075 172.601 124.352 182.982 118.277C193.364 112.202 201.082 102.24 204.537 90.4561C207.991 78.6719 206.918 65.9687 201.538 54.9787H201.527ZM176.069 110.154C169.562 113.467 162.247 114.715 155.051 113.741C147.855 112.767 141.101 109.614 135.643 104.681C130.184 99.7482 126.266 93.2567 124.385 86.0274C122.503 78.798 122.742 71.1556 125.072 64.0665C127.401 56.9773 131.717 50.7597 137.472 46.1999C143.228 41.6402 150.165 38.943 157.407 38.4493C164.649 37.9557 171.87 39.6879 178.157 43.4268C184.444 47.1657 189.516 52.7435 192.729 59.4548C194.864 63.9119 196.126 68.7589 196.444 73.7191C196.762 78.6793 196.129 83.6555 194.582 88.3635C193.035 93.0715 190.604 97.4191 187.427 101.158C184.251 104.897 180.391 107.953 176.069 110.154Z" fill="black"/>
<path d="M88.4799 64.6876C88.4799 65.0284 88.6535 65.3056 88.8719 65.3056C89.0903 65.3056 89.2639 65.0284 89.2639 64.6876C89.2639 64.3468 89.0903 64.0696 88.8719 64.0696C88.6535 64.0696 88.4799 64.3699 88.4799 64.6876Z" fill="#263238"/>
<path d="M88.6369 65.3056C89.0333 66.3516 89.5665 67.3368 90.2217 68.2339C89.9952 68.401 89.736 68.515 89.4622 68.5679C89.1884 68.6208 88.9067 68.6113 88.6369 68.54V65.3056Z" fill="#DE5753"/>
<path d="M87.3207 62.7874C87.2895 62.7874 87.2587 62.7802 87.2305 62.7662C87.2024 62.7522 87.1777 62.7318 87.1583 62.7065C87.1291 62.6625 87.1175 62.6085 87.1259 62.5558C87.1342 62.5031 87.1619 62.4558 87.2031 62.4235C87.4498 62.2306 87.7379 62.102 88.0431 62.0487C88.3483 61.9955 88.6615 62.019 88.9559 62.1174C88.9824 62.1249 89.007 62.1379 89.0283 62.1558C89.0495 62.1736 89.0669 62.1959 89.0793 62.2211C89.0916 62.2464 89.0988 62.274 89.1001 62.3022C89.1015 62.3304 89.0972 62.3587 89.0873 62.385C89.0775 62.4114 89.0624 62.4354 89.043 62.4554C89.0236 62.4754 89.0004 62.491 88.9748 62.5011C88.9493 62.5113 88.9219 62.5158 88.8945 62.5144C88.8672 62.5129 88.8404 62.5056 88.8159 62.4928C88.582 62.4189 88.3343 62.4038 88.0936 62.4491C87.8529 62.4943 87.6263 62.5984 87.4327 62.7527C87.3995 62.7755 87.3606 62.7875 87.3207 62.7874Z" fill="#263238"/>
<path d="M77.1678 67.2578C77.7278 70.3593 78.3438 76.0484 76.2382 78.1218C76.2382 78.1218 77.0614 81.2696 82.6558 81.2696C88.8158 81.2696 85.5901 78.1218 85.5901 78.1218C82.2301 77.2901 82.3254 74.7257 82.9078 72.3115L77.1678 67.2578Z" fill="#E4897B"/>
<path d="M73.7239 79.7564C74.3903 78.6879 73.2703 76.0946 73.2703 76.0946C73.2703 76.0946 83.1711 73.5244 87.2199 77.4692C88.0599 78.2836 87.1303 79.4849 87.1303 79.4849L73.7239 79.7564Z" fill="#407BFF"/>
<path opacity="0.1" d="M73.7239 79.7564C74.3903 78.6879 73.2703 76.0946 73.2703 76.0946C73.2703 76.0946 83.1711 73.5244 87.2199 77.4692C88.0599 78.2836 87.1303 79.4849 87.1303 79.4849L73.7239 79.7564Z" fill="black"/>
<path d="M57.344 197.598C56.8232 197.598 55.9888 196.702 55.7424 196.367C55.7318 196.351 55.7262 196.332 55.7262 196.312C55.7262 196.293 55.7318 196.274 55.7424 196.258C55.7515 196.241 55.7646 196.228 55.7803 196.219C55.7961 196.21 55.8139 196.205 55.832 196.206C55.8936 196.206 57.2656 196.333 57.6408 196.835C57.6816 196.888 57.7108 196.95 57.7262 197.016C57.7417 197.081 57.7431 197.15 57.7304 197.216C57.7256 197.302 57.6949 197.385 57.6428 197.452C57.5906 197.519 57.5195 197.568 57.4392 197.592L57.344 197.598ZM56.0448 196.442C56.4536 196.928 57.1088 197.476 57.3888 197.407C57.3888 197.407 57.5008 197.378 57.5344 197.193C57.5418 197.155 57.5406 197.115 57.5309 197.077C57.5212 197.039 57.5032 197.004 57.4784 196.974C57.0636 196.65 56.5644 196.461 56.0448 196.431V196.442Z" fill="#407BFF"/>
<path d="M56.1062 196.431C56.0057 196.441 55.9044 196.441 55.8038 196.431C55.7861 196.429 55.7692 196.423 55.7553 196.411C55.7413 196.4 55.7309 196.385 55.7254 196.367C55.7175 196.351 55.7134 196.333 55.7134 196.315C55.7134 196.297 55.7175 196.279 55.7254 196.263C55.7646 196.229 56.5878 195.345 57.2094 195.345C57.2838 195.343 57.3577 195.358 57.4262 195.388C57.4948 195.418 57.5564 195.462 57.607 195.518C57.6628 195.566 57.7009 195.633 57.7152 195.706C57.7294 195.78 57.7189 195.856 57.6854 195.923C57.523 196.246 56.6662 196.431 56.1062 196.431ZM56.0334 196.229C56.5934 196.229 57.4054 196.05 57.5398 195.796C57.5398 195.796 57.579 195.72 57.4894 195.628C57.4568 195.591 57.4169 195.563 57.3724 195.544C57.3279 195.525 57.2799 195.516 57.2318 195.518C56.7727 195.627 56.3555 195.874 56.0334 196.229Z" fill="#407BFF"/>
<path d="M94.2982 210.708C93.8738 210.705 93.4503 210.665 93.0326 210.587C93.0119 210.583 92.9932 210.571 92.9799 210.555C92.9665 210.538 92.9594 210.516 92.9598 210.495C92.9567 210.475 92.9592 210.454 92.9672 210.436C92.9752 210.417 92.9882 210.402 93.0046 210.391C93.0662 210.356 94.4998 209.507 95.1886 209.703C95.2525 209.718 95.3127 209.746 95.3657 209.786C95.4186 209.826 95.4632 209.876 95.4966 209.934C95.5405 209.999 95.564 210.075 95.564 210.154C95.564 210.232 95.5405 210.309 95.4966 210.373C95.3342 210.633 94.8246 210.708 94.2982 210.708ZM93.3518 210.437C94.1134 210.552 95.155 210.547 95.3454 210.269C95.3734 210.235 95.3958 210.171 95.3454 210.05C95.3026 209.978 95.2343 209.926 95.155 209.906C94.7182 209.79 93.8502 210.171 93.3518 210.437Z" fill="#407BFF"/>
<path d="M93.0549 210.593C93.0366 210.598 93.0172 210.598 92.9989 210.593C92.9834 210.583 92.9713 210.568 92.9643 210.55C92.9573 210.533 92.9557 210.513 92.9597 210.495C92.9977 209.893 93.2214 209.321 93.5981 208.86C93.6743 208.792 93.7638 208.742 93.8604 208.713C93.957 208.684 94.0586 208.677 94.1581 208.693C94.4269 208.693 94.5053 208.86 94.5221 208.97C94.5949 209.449 93.6149 210.368 93.1165 210.599L93.0549 210.593ZM94.0573 208.86C93.9341 208.859 93.8147 208.904 93.7213 208.987C93.4047 209.352 93.2086 209.811 93.1613 210.298C93.6653 209.981 94.3373 209.264 94.2813 208.976C94.2813 208.976 94.2813 208.877 94.0909 208.86H94.0573Z" fill="#407BFF"/>
<path d="M88.5303 210.489H92.6463L93.0551 200.664H88.9391L88.5303 210.489Z" fill="#E4897B"/>
<path d="M51.8784 193.624L55.3168 195.946L62.9104 189.333L59.4664 187.005L51.8784 193.624Z" fill="#E4897B"/>
<path d="M55.8821 195.726L52.3093 192.706C52.2462 192.652 52.167 192.623 52.0853 192.623C52.0036 192.623 51.9244 192.652 51.8613 192.706L48.9157 195.091C48.8445 195.149 48.7871 195.224 48.7476 195.308C48.7081 195.393 48.6876 195.485 48.6876 195.579C48.6876 195.673 48.7081 195.765 48.7476 195.85C48.7871 195.934 48.8445 196.009 48.9157 196.067C50.1813 197.101 50.8477 197.54 52.4213 198.868C53.3901 199.683 55.7813 202.178 57.1309 203.304C58.4805 204.43 59.7181 203.217 59.2701 202.634C57.2597 200.006 56.4701 197.759 56.2405 196.367C56.2008 196.116 56.0734 195.888 55.8821 195.726Z" fill="#263238"/>
<path d="M92.6182 209.998H88.1382C88.0565 209.998 87.9772 210.027 87.9133 210.079C87.8493 210.132 87.8042 210.205 87.7854 210.287L86.9734 214.058C86.953 214.15 86.953 214.245 86.9734 214.336C86.9939 214.427 87.0343 214.513 87.0915 214.586C87.1487 214.659 87.2212 214.717 87.3036 214.757C87.386 214.797 87.476 214.816 87.567 214.815C89.1854 214.786 91.5262 214.688 93.5646 214.688C95.9446 214.688 98.0054 214.821 100.794 214.821C102.474 214.821 102.956 213.059 102.245 212.903C99.0302 212.175 96.3982 212.1 93.6206 210.327C93.3225 210.124 92.9754 210.01 92.6182 209.998Z" fill="#263238"/>
<path d="M68.1295 79.3867C64.5623 81.1194 62.5295 92.7285 62.5295 92.7285L71.2487 96.3152C72.525 93.1011 73.5567 89.7893 74.3343 86.4099C75.5327 81.0617 71.7807 77.5963 68.1295 79.3867Z" fill="#263238"/>
<path d="M72.7552 85.9306C70.5992 88.1831 69.6136 92.5957 69.1824 95.4662L71.2712 96.3268C72.5112 93.2039 73.5221 89.9893 74.2952 86.7103C74.1104 85.4858 73.6512 84.9949 72.7552 85.9306Z" fill="#203048"/>
<path d="M91.9185 79.3058C91.9185 79.3058 96.2977 84.4115 92.1649 115.981H70.1625C70.0113 112.516 72.1337 95.5066 68.8745 79.0921C71.306 78.6059 73.766 78.2856 76.2385 78.1334C79.353 77.9426 82.4759 77.9426 85.5905 78.1334C87.726 78.355 89.8416 78.747 91.9185 79.3058Z" fill="#263238"/>
<path d="M93.9287 91.5618L90.2215 84.9718C89.5059 88.0466 89.2137 91.21 89.3535 94.3688C89.4543 96.6329 91.4647 105.019 93.2735 106.244C93.7535 101.366 93.9722 96.4645 93.9287 91.5618Z" fill="#203048"/>
<path d="M94.4441 83.8166C95.0041 86.6236 95.5641 89.4999 96.1633 92.3184C96.7625 95.137 97.3841 97.9671 98.1065 100.699C98.2913 101.375 98.4649 102.068 98.6665 102.715L98.8177 103.211L98.8905 103.46V103.431C98.8513 103.379 98.8065 103.373 98.8401 103.431C99.0703 103.69 99.3646 103.88 99.6913 103.98C100.221 104.183 100.766 104.339 101.321 104.447C103.969 104.88 106.649 105.06 109.329 104.985L109.861 108.126C109.111 108.375 108.411 108.554 107.671 108.733C106.932 108.912 106.204 109.062 105.459 109.178C103.918 109.442 102.356 109.551 100.795 109.501C99.9266 109.477 99.0634 109.361 98.2185 109.155C97.1443 108.912 96.1348 108.429 95.2617 107.74C94.6915 107.265 94.2209 106.675 93.8785 106.007C93.7889 105.834 93.7105 105.637 93.6377 105.47L93.5369 105.198L93.3297 104.621C93.0441 103.887 92.8089 103.165 92.5513 102.443C91.6049 99.5554 90.8153 96.6387 90.1209 93.7277C89.4265 90.8168 88.8273 87.9116 88.3289 84.9256L94.4441 83.8166Z" fill="#E4897B"/>
<path d="M86.4249 82.4016C85.2657 86.2771 89.9641 97.8342 89.9641 97.8342L99.3217 95.4085C99.3217 95.4085 98.9633 89.4017 96.8297 84.6368C93.6153 77.4519 87.8137 77.7522 86.4249 82.4016Z" fill="#263238"/>
<path d="M109.25 104.985L113.91 104.863L111.67 109.865C111.67 109.865 109.771 110.125 108.214 107.485L106.574 105.464L108.461 105.077C108.721 105.021 108.985 104.99 109.25 104.985Z" fill="#E4897B"/>
<path d="M116.85 105.793L114.184 109.94L111.67 109.865L113.91 104.863L116.85 105.793Z" fill="#E4897B"/>
<path d="M93.0552 200.664L92.8423 205.73H88.7264L88.9392 200.664H93.0552Z" fill="#CE6F64"/>
<path d="M59.4661 187.005L62.9101 189.333L58.9901 192.74L55.5517 190.418L59.4661 187.005Z" fill="#CE6F64"/>
<path d="M77.4256 63.9541C77.672 68.153 77.6104 70.6308 79.6656 72.7851C82.7568 76.0368 87.7912 74.1135 88.7656 69.8973C89.6448 66.12 89.096 59.8822 85.1088 58.2073C84.229 57.841 83.2735 57.7113 82.3318 57.8303C81.3901 57.9493 80.4931 58.3131 79.7251 58.8876C78.9571 59.462 78.3431 60.2283 77.9409 61.1145C77.5387 62.0007 77.3614 62.9778 77.4256 63.9541Z" fill="#E4897B"/>
<path d="M72.632 63.2148C73.6456 67.0441 76.0312 71.4567 79.1168 71.7397C82.9472 72.0863 84.6776 68.0029 85.1816 63.7866C87.4776 62.1636 86.2736 60.379 88.5752 60.1537C91.532 59.8649 90.5856 54.2856 86.6936 53.3904C86.6936 53.3904 87.9984 55.9028 85.26 54.6322C82.6557 53.3557 79.7625 52.8384 76.8936 53.1363C76.8936 53.1363 80.388 54.9383 76.972 55.7411C73.556 56.5439 72.5368 58.7156 74.1104 60.0266C74.1104 60.0324 71.9656 60.6966 72.632 63.2148Z" fill="#263238"/>
<path d="M82.8465 64.653C82.9218 65.6967 83.3293 66.6855 84.0057 67.4657C84.9017 68.488 85.8369 67.8527 85.9937 66.6109C86.1393 65.4962 85.8425 63.6191 84.7449 63.0531C83.6473 62.4871 82.7737 63.3939 82.8465 64.653Z" fill="#E4897B"/>
<path d="M84.3586 115.981C84.3586 115.981 88.3682 145.928 85.2098 157.93C80.2034 176.932 61.0626 192.971 61.0626 192.971L54.5722 188.582C54.5722 188.582 70.8738 175.038 72.8673 159.126C74.6593 144.842 70.1626 127.567 70.1626 115.976L84.3586 115.981Z" fill="#407BFF"/>
<path opacity="0.1" d="M84.3586 115.981C84.3586 115.981 88.3682 145.928 85.2098 157.93C80.2034 176.932 61.0626 192.971 61.0626 192.971L54.5722 188.582C54.5722 188.582 70.8738 175.038 72.8673 159.126C74.6593 144.842 70.1626 127.567 70.1626 115.976L84.3586 115.981Z" fill="black"/>
<path d="M86.0159 133.101C84.9484 131.839 83.7733 130.679 82.5047 129.635C83.1879 139.356 83.7479 153.754 83.1263 163.983C83.962 162.022 84.6583 160.001 85.2095 157.936C86.7495 152.074 86.5871 141.949 86.0159 133.101Z" fill="#407BFF"/>
<path opacity="0.3" d="M86.0159 133.101C84.9484 131.839 83.7733 130.679 82.5047 129.635C83.1879 139.356 83.7479 153.754 83.1263 163.983C83.962 162.022 84.6583 160.001 85.2095 157.936C86.7495 152.074 86.5871 141.949 86.0159 133.101Z" fill="black"/>
<path d="M63.6775 191.475C63.7055 191.475 61.1631 193.208 61.1631 193.208L54.0735 188.414L56.3135 186.502L63.6775 191.475Z" fill="#407BFF"/>
<path opacity="0.3" d="M63.6775 191.475C63.7055 191.475 61.1631 193.208 61.1631 193.208L54.0735 188.414L56.3135 186.502L63.6775 191.475Z" fill="black"/>
<path d="M92.165 115.981C92.165 115.981 98.3586 143.069 98.7954 156.013C99.2882 170.521 94.377 204.748 94.377 204.748H87.405C87.405 204.748 86.5482 170.255 86.2402 157.041C85.8986 142.63 77.7002 115.981 77.7002 115.981H92.165Z" fill="#407BFF"/>
<path opacity="0.1" d="M92.165 115.981C92.165 115.981 98.3586 143.069 98.7954 156.013C99.2882 170.521 94.377 204.748 94.377 204.748H87.405C87.405 204.748 86.5482 170.255 86.2402 157.041C85.8986 142.63 77.7002 115.981 77.7002 115.981H92.165Z" fill="black"/>
<path d="M95.7153 201.889C95.7489 201.889 95.3233 204.869 95.3233 204.869H86.8449L86.6153 202.207L95.7153 201.889Z" fill="#407BFF"/>
<path opacity="0.3" d="M95.7153 201.889C95.7489 201.889 95.3233 204.869 95.3233 204.869H86.8449L86.6153 202.207L95.7153 201.889Z" fill="black"/>
<path d="M199.36 89.9504C199.836 90.4125 200.211 90.8052 200.603 91.2442C200.995 91.6832 201.365 92.1106 201.723 92.5553C202.451 93.439 203.134 94.3688 203.795 95.3045C205.115 97.1814 206.289 99.1628 207.306 101.23L207.514 101.652C207.615 101.856 207.699 102.069 207.766 102.287C207.901 102.71 207.984 103.149 208.012 103.593C208.048 104.376 207.944 105.159 207.704 105.903C207.295 107.138 206.687 108.294 205.906 109.322C204.499 111.186 202.84 112.832 200.978 114.208L199.584 112.556C200.239 111.765 200.922 110.916 201.533 110.067C202.154 109.245 202.715 108.376 203.213 107.468C203.677 106.676 204.021 105.815 204.232 104.915C204.304 104.593 204.318 104.26 204.271 103.933C204.251 103.823 204.217 103.717 204.17 103.616C204.149 103.571 204.125 103.529 204.098 103.489L203.918 103.177C202.838 101.361 201.666 99.6042 200.407 97.9151C199.786 97.0661 199.119 96.2517 198.447 95.4489C198.117 95.0446 197.775 94.6519 197.434 94.2591C197.092 93.8664 196.722 93.4736 196.426 93.1675L199.36 89.9504Z" fill="#E4897B"/>
<path d="M200.121 112.071L195.938 111.367L198.128 115.144C198.128 115.144 200.821 115.046 201.589 113.411L200.121 112.071Z" fill="#E4897B"/>
<path d="M192.847 113.111L194.841 116.178L198.128 115.144L195.939 111.367L192.847 113.111Z" fill="#E4897B"/>
<path d="M199.92 210.656C199.636 210.682 199.352 210.602 199.119 210.431C199.049 210.363 198.997 210.277 198.969 210.182C198.94 210.087 198.936 209.985 198.957 209.888C198.961 209.826 198.981 209.767 199.016 209.716C199.05 209.665 199.098 209.625 199.153 209.599C199.64 209.374 200.917 210.217 201.062 210.316C201.079 210.326 201.092 210.342 201.099 210.361C201.106 210.38 201.107 210.4 201.102 210.42C201.099 210.439 201.091 210.458 201.078 210.472C201.065 210.487 201.048 210.497 201.029 210.5C200.666 210.595 200.294 210.648 199.92 210.656ZM199.36 209.761C199.319 209.755 199.278 209.755 199.237 209.761C199.212 209.773 199.191 209.792 199.176 209.815C199.162 209.839 199.153 209.866 199.153 209.894C199.138 209.958 199.139 210.026 199.157 210.089C199.175 210.153 199.208 210.211 199.254 210.258C199.466 210.454 200.015 210.483 200.749 210.333C200.329 210.047 199.856 209.852 199.36 209.761Z" fill="#407BFF"/>
<path d="M201.04 210.495H200.99C200.592 210.258 199.825 209.34 199.92 208.837C199.938 208.758 199.981 208.687 200.041 208.635C200.102 208.583 200.177 208.552 200.256 208.548C200.332 208.537 200.409 208.544 200.482 208.568C200.554 208.592 200.621 208.632 200.676 208.687C201.135 209.103 201.141 210.35 201.141 210.42C201.14 210.437 201.135 210.454 201.126 210.469C201.117 210.484 201.105 210.497 201.09 210.506L201.04 210.495ZM200.323 208.762H200.278C200.155 208.762 200.127 208.831 200.116 208.883C200.06 209.178 200.536 209.882 200.934 210.212C200.943 209.727 200.809 209.251 200.547 208.849C200.514 208.816 200.474 208.792 200.43 208.777C200.387 208.762 200.341 208.757 200.295 208.762H200.323Z" fill="#407BFF"/>
<path d="M180.835 210.656C180.478 210.692 180.119 210.598 179.822 210.391C179.754 210.329 179.703 210.252 179.67 210.166C179.638 210.079 179.627 209.986 179.637 209.894C179.64 209.838 179.658 209.784 179.687 209.736C179.716 209.689 179.757 209.65 179.805 209.623C180.326 209.322 181.994 210.2 182.185 210.31C182.202 210.322 182.216 210.338 182.225 210.357C182.234 210.377 182.237 210.398 182.235 210.42C182.232 210.44 182.223 210.459 182.209 210.473C182.194 210.488 182.176 210.497 182.157 210.5C181.722 210.596 181.279 210.648 180.835 210.656ZM180.09 209.761C180.026 209.757 179.962 209.771 179.906 209.802C179.885 209.811 179.868 209.827 179.857 209.846C179.845 209.866 179.838 209.888 179.838 209.911C179.83 209.971 179.835 210.033 179.855 210.09C179.875 210.148 179.907 210.199 179.95 210.241C180.208 210.477 180.897 210.518 181.826 210.356C181.284 210.058 180.697 209.857 180.09 209.761Z" fill="#407BFF"/>
<path d="M182.14 210.495H182.096C181.597 210.264 180.606 209.34 180.684 208.837C180.684 208.722 180.785 208.577 181.06 208.548C181.16 208.537 181.261 208.547 181.357 208.578C181.454 208.609 181.543 208.66 181.62 208.727C182.146 209.178 182.247 210.344 182.247 210.396C182.249 210.414 182.246 210.432 182.239 210.448C182.233 210.465 182.222 210.479 182.207 210.489C182.186 210.498 182.163 210.5 182.14 210.495ZM181.138 208.762H181.076C180.897 208.762 180.886 208.854 180.88 208.877C180.836 209.172 181.508 209.906 182 210.223C181.952 209.73 181.756 209.263 181.44 208.889C181.355 208.814 181.249 208.77 181.138 208.762Z" fill="#407BFF"/>
<path d="M188.759 76.6722C188.597 79.2828 188.16 84.5848 190.103 86.0519C190.103 86.0519 189.751 88.726 185.164 89.3498C180.124 90.0255 182.426 87.0915 182.426 87.0915C185.097 86.0403 184.755 83.9437 184.027 82.0262L188.759 76.6722Z" fill="#E4897B"/>
<path d="M178.326 72.0574C178.299 72.0575 178.271 72.0513 178.246 72.0393C178.221 72.0273 178.199 72.0099 178.181 71.9881C178.021 71.7922 177.818 71.6378 177.59 71.5375C177.361 71.4372 177.113 71.3937 176.865 71.4105C176.839 71.4154 176.812 71.4148 176.786 71.4087C176.76 71.4025 176.735 71.391 176.714 71.3748C176.692 71.3586 176.674 71.338 176.661 71.3144C176.647 71.2907 176.639 71.2645 176.635 71.2372C176.629 71.1829 176.643 71.1282 176.676 71.085C176.708 71.0417 176.756 71.0134 176.809 71.0062C177.125 70.9787 177.443 71.0304 177.735 71.1572C178.028 71.2839 178.286 71.4818 178.489 71.734C178.513 71.7641 178.529 71.8006 178.534 71.8395C178.539 71.8783 178.533 71.9177 178.517 71.9534C178.501 71.989 178.476 72.0192 178.444 72.0407C178.413 72.0622 178.376 72.074 178.338 72.0747L178.326 72.0574Z" fill="#263238"/>
<path d="M177.453 74.616C177.254 75.4444 176.947 76.2411 176.54 76.984C176.727 77.0878 176.934 77.1478 177.146 77.1598C177.358 77.1718 177.569 77.1354 177.766 77.0534L177.453 74.616Z" fill="#DE5753"/>
<path d="M177.677 73.9807C177.722 74.3272 177.582 74.6276 177.363 74.6622C177.145 74.6969 176.926 74.4312 176.887 74.0847C176.848 73.7381 176.982 73.4378 177.201 73.4089C177.419 73.38 177.638 73.611 177.677 73.9807Z" fill="#263238"/>
<path d="M177.302 73.4147L176.468 73.2818C176.468 73.2818 176.96 73.8767 177.302 73.4147Z" fill="#263238"/>
<path d="M186.754 210.402H182.554L182.274 200.381H186.474L186.754 210.402Z" fill="#E4897B"/>
<path d="M205.823 210.402H201.623L200.273 200.381H204.473L205.823 210.402Z" fill="#E4897B"/>
<path d="M201.365 209.917H206.08C206.16 209.916 206.238 209.946 206.299 210C206.36 210.054 206.399 210.13 206.41 210.212L206.97 214.064C206.981 214.161 206.971 214.259 206.942 214.352C206.913 214.445 206.865 214.531 206.801 214.603C206.738 214.676 206.66 214.734 206.574 214.773C206.487 214.813 206.393 214.833 206.298 214.832C204.658 214.803 203.862 214.705 201.79 214.705C200.514 214.705 198.649 214.838 196.89 214.838C195.132 214.838 195.037 213.042 195.77 212.88C199.058 212.152 199.578 211.147 200.682 210.183C200.874 210.018 201.115 209.924 201.365 209.917Z" fill="#263238"/>
<path d="M182.415 209.917H187.124C187.205 209.916 187.284 209.945 187.346 210C187.407 210.054 187.448 210.129 187.46 210.212L188.02 214.064C188.03 214.161 188.021 214.259 187.991 214.352C187.962 214.445 187.914 214.531 187.851 214.603C187.788 214.676 187.71 214.734 187.623 214.773C187.537 214.813 187.443 214.833 187.348 214.832C185.707 214.803 184.912 214.705 182.84 214.705C181.563 214.705 178.92 214.838 177.162 214.838C175.403 214.838 175.308 213.042 176.042 212.88C179.329 212.152 180.623 211.147 181.731 210.183C181.924 210.018 182.164 209.924 182.415 209.917Z" fill="#263238"/>
<path d="M182.274 200.381L182.42 205.551H186.62L186.474 200.381H182.274Z" fill="#CE6F64"/>
<path d="M204.473 200.381H200.273L200.973 205.551H205.167L204.473 200.381Z" fill="#CE6F64"/>
<path d="M188.815 71.2661C189.101 75.5517 189.308 77.3595 187.505 79.8257C184.789 83.5279 179.626 82.9561 178.102 78.8438C176.73 75.1416 176.495 68.7595 180.314 66.5185C181.155 66.0219 182.104 65.7549 183.072 65.7429C184.041 65.7308 184.996 65.9741 185.847 66.4497C186.699 66.9253 187.418 67.6174 187.938 68.4603C188.457 69.3032 188.759 70.269 188.815 71.2661Z" fill="#E4897B"/>
<path d="M191.235 75.2456C193.564 76.5855 195.295 73.2818 195.295 73.2818C195.295 73.2818 191.117 73.7497 191.492 71.1853C191.985 67.7834 189.622 63.648 183.697 64.1794C183.367 64.2082 183.053 64.2487 182.745 64.3007C182.125 63.9974 181.423 63.9191 180.754 64.0785C180.086 64.2378 179.489 64.6255 179.06 65.1786C177.38 65.3229 175.112 67.3906 176.652 70.1225C176.76 69.8086 176.928 69.52 177.145 69.2735C177.274 70.8734 178.629 73.4147 180.32 73.5822C180.684 75.7712 179.273 78.3067 179.76 80.5938C180.483 83.8918 185.875 84.6368 185.875 84.6368C185.689 84.225 185.62 83.7673 185.676 83.3166C185.731 82.8659 185.909 82.4406 186.189 82.0897C189.851 83.8224 192.265 82.1302 192.265 82.1302C189.767 81.1714 190.523 79.4618 190.523 79.4618C191.386 79.8567 192.363 79.8914 193.25 79.5586C194.136 79.2258 194.863 78.5513 195.278 77.6771C194.448 77.7178 193.625 77.5098 192.907 77.0783C192.19 76.6468 191.609 76.0102 191.235 75.2456Z" fill="#263238"/>
<path d="M181.781 74.2406C181.791 74.6519 181.722 75.0611 181.578 75.4448C181.434 75.8284 181.217 76.1788 180.941 76.4758C180.202 77.2671 179.295 76.7126 179.049 75.7018C178.83 74.7893 178.953 73.2818 179.917 72.866C180.129 72.7801 180.358 72.7502 180.584 72.779C180.81 72.8078 181.026 72.8945 181.211 73.0311C181.396 73.1677 181.545 73.3499 181.645 73.5611C181.745 73.7723 181.792 74.0059 181.781 74.2406Z" fill="#E4897B"/>
<path d="M185.271 114.168C185.271 114.168 186.335 142.677 188.866 159.415C190.904 172.941 199.959 204.546 199.959 204.546H205.683C205.683 204.546 200.962 174.021 199.926 160.651C197.305 126.811 204.109 119.545 197.686 112.499L185.271 114.168Z" fill="#263238"/>
<path d="M190.053 123.184C190.053 123.184 187.466 122.722 185.954 127.804C186.514 137.432 187.471 150.208 188.866 159.415C189.174 161.465 189.644 163.937 190.221 166.646C189.129 150.381 190.053 123.184 190.053 123.184Z" fill="#161F33"/>
<path d="M180.807 114.769C180.807 114.769 176.092 146.31 176.366 159.507C176.652 173.236 181.53 204.557 181.53 204.557H187.202C187.202 204.557 186.306 174.05 186.805 160.57C187.365 145.871 193.183 113.111 193.183 113.111L180.807 114.769Z" fill="#263238"/>
<path d="M206.511 204.823H198.901L198.307 202.189L206.455 202.247L206.511 204.823Z" fill="#407BFF"/>
<path opacity="0.2" d="M206.511 204.823H198.901L198.307 202.189L206.455 202.247L206.511 204.823Z" fill="black"/>
<path d="M197.4 86.0576C199.59 86.2771 202.916 92.6939 202.916 92.6939L197.389 97.0661C197.389 97.0661 192.814 92.9249 193.357 90.5973C193.923 88.1773 195.3 85.8555 197.4 86.0576Z" fill="#407BFF"/>
<path opacity="0.1" d="M197.4 86.0576C199.59 86.2771 202.916 92.6939 202.916 92.6939L197.389 97.0661C197.389 97.0661 192.814 92.9249 193.357 90.5973C193.923 88.1773 195.3 85.8555 197.4 86.0576Z" fill="black"/>
<path d="M195.748 88.8184C195.19 88.6633 194.612 88.597 194.034 88.622C193.741 89.2535 193.513 89.9157 193.357 90.5973C192.797 92.9076 197.389 97.0661 197.389 97.0661L197.798 96.7426L195.748 88.8184Z" fill="#407BFF"/>
<path opacity="0.3" d="M195.748 88.8184C195.19 88.6633 194.612 88.597 194.034 88.622C193.741 89.2535 193.513 89.9157 193.357 90.5973C192.797 92.9076 197.389 97.0661 197.389 97.0661L197.798 96.7426L195.748 88.8184Z" fill="black"/>
<path d="M178.932 94.9811C177.336 99.1453 175.656 103.379 174.317 107.555C174.228 107.82 174.155 108.075 174.076 108.334L173.886 108.976C173.834 109.164 173.834 109.364 173.886 109.553C174.202 110.275 174.704 110.894 175.336 111.344C177.011 112.583 178.835 113.59 180.763 114.341L180.259 116.467C177.887 116.144 175.594 115.373 173.494 114.191C172.202 113.479 171.149 112.379 170.476 111.037C170.089 110.18 169.954 109.224 170.089 108.288C170.102 108.174 170.121 108.06 170.145 107.947L170.201 107.705L170.296 107.266C170.364 106.971 170.431 106.688 170.504 106.4C171.064 104.089 171.78 101.895 172.536 99.7171C173.292 97.5397 174.082 95.3911 174.972 93.2484L178.932 94.9811Z" fill="#E4897B"/>
<path d="M175.532 89.1361C175.532 89.1361 173.639 90.1237 180.807 114.769L197.708 112.493C196.521 105.435 195.961 101.063 197.4 86.0576C194.976 85.8786 192.544 85.8786 190.12 86.0576C187.54 86.2124 184.974 86.5598 182.442 87.0973C179.2 87.8423 175.532 89.1361 175.532 89.1361Z" fill="#407BFF"/>
<path opacity="0.1" d="M175.532 89.1361C175.532 89.1361 173.639 90.1237 180.807 114.769L197.708 112.493C196.521 105.435 195.961 101.063 197.4 86.0576C194.976 85.8786 192.544 85.8786 190.12 86.0576C187.54 86.2124 184.974 86.5598 182.442 87.0973C179.2 87.8423 175.532 89.1361 175.532 89.1361Z" fill="black"/>
<path d="M197.831 111.436L198.8 112.886C198.873 113.001 198.75 113.14 198.559 113.169L180.835 115.56C180.684 115.56 180.544 115.519 180.522 115.421L180.175 113.879C180.147 113.775 180.27 113.665 180.438 113.642L197.551 111.332C197.603 111.324 197.655 111.329 197.704 111.347C197.753 111.365 197.797 111.396 197.831 111.436Z" fill="#407BFF"/>
<path opacity="0.2" d="M197.831 111.436L198.8 112.886C198.873 113.001 198.75 113.14 198.559 113.169L180.835 115.56C180.684 115.56 180.544 115.519 180.522 115.421L180.175 113.879C180.147 113.775 180.27 113.665 180.438 113.642L197.551 111.332C197.603 111.324 197.655 111.329 197.704 111.347C197.753 111.365 197.797 111.396 197.831 111.436Z" fill="black"/>
<path d="M195.782 113.717L196.241 113.654C196.331 113.654 196.392 113.585 196.381 113.527L195.911 111.528C195.893 111.494 195.864 111.468 195.829 111.453C195.795 111.438 195.756 111.436 195.72 111.448L195.261 111.505C195.166 111.505 195.104 111.575 195.121 111.638L195.591 113.631C195.603 113.694 195.692 113.729 195.782 113.717Z" fill="#263238"/>
<path d="M184.671 115.196L185.131 115.132C185.22 115.132 185.287 115.063 185.271 115.005L184.8 113.007C184.782 112.973 184.753 112.947 184.719 112.931C184.685 112.915 184.646 112.912 184.61 112.92L184.151 112.984C184.061 112.984 183.994 113.053 184.011 113.111L184.481 115.109C184.492 115.196 184.582 115.231 184.671 115.196Z" fill="#263238"/>
<path d="M176.322 97.4992C176.786 99.7287 177.442 102.553 178.399 106.128L178.606 97.0661L176.322 97.4992Z" fill="#407BFF"/>
<path opacity="0.3" d="M176.322 97.4992C176.786 99.7287 177.442 102.553 178.399 106.128L178.606 97.0661L176.322 97.4992Z" fill="black"/>
<path d="M175.532 89.1361C173.432 90.0082 171.612 97.4184 171.612 97.4184L178.836 101.046C178.836 101.046 182.325 91.9835 180.763 90.2161C179.2 88.4488 177.951 88.1369 175.532 89.1361Z" fill="#407BFF"/>
<path opacity="0.1" d="M175.532 89.1361C173.432 90.0082 171.612 97.4184 171.612 97.4184L178.836 101.046C178.836 101.046 182.325 91.9835 180.763 90.2161C179.2 88.4488 177.951 88.1369 175.532 89.1361Z" fill="black"/>
<path d="M188.171 204.823H180.561L179.967 202.189L188.44 202.247L188.171 204.823Z" fill="#407BFF"/>
<path opacity="0.2" d="M188.171 204.823H180.561L179.967 202.189L188.44 202.247L188.171 204.823Z" fill="black"/>
<path d="M180.88 113.625L180.27 113.365C180.12 113.302 179.956 113.281 179.796 113.305C179.635 113.328 179.484 113.394 179.356 113.498C179.229 113.601 179.13 113.737 179.07 113.892C179.01 114.047 178.991 114.216 179.015 114.382L179.458 117.391C179.479 117.541 179.532 117.685 179.614 117.812C179.696 117.939 179.804 118.045 179.93 118.124C180.057 118.202 180.198 118.251 180.345 118.266C180.492 118.281 180.64 118.262 180.779 118.211C181.001 118.128 181.209 118.009 181.395 117.859C181.598 117.685 181.758 117.465 181.863 117.217C181.968 116.968 182.015 116.697 182 116.426L181.938 115.179C181.928 114.842 181.822 114.515 181.634 114.239C181.446 113.963 181.184 113.75 180.88 113.625Z" fill="#E4897B"/>
</svg>
