<svg width="1341" height="1069" viewBox="0 0 1341 1069" fill="none" xmlns="http://www.w3.org/2000/svg">
<path d="M196.334 966.031C458.113 1102.79 882.568 1102.79 1144.35 966.031C1406.12 829.275 1406.12 607.545 1144.35 470.759C882.568 333.973 458.232 334.003 196.334 470.759C-65.5644 607.515 -65.3249 829.275 196.334 966.031Z" fill="#F5F5F5"/>
<path d="M123.362 741.756L38.2671 692.639V510.119L123.362 559.266V741.756Z" fill="#E0E0E0"/>
<path d="M123.362 559.266L244.942 489.077V671.568L123.362 741.756V559.266Z" fill="#EBEBEB"/>
<path d="M244.942 489.077L123.362 559.266L38.2671 510.119L159.848 439.93L244.942 489.077Z" fill="#F5F5F5"/>
<path d="M135.544 566.27L232.79 510.119L235.035 511.406V579.02L137.759 635.171L135.514 633.884L135.544 566.27Z" fill="#E0E0E0"/>
<path d="M137.759 567.587L235.035 511.406V579.02L137.759 635.171V567.587Z" fill="#F5F5F5"/>
<path d="M175.891 557.021L192.443 547.473C194.568 546.216 196.304 546.784 196.304 548.73C196.15 549.921 195.721 551.061 195.051 552.058C194.381 553.056 193.488 553.884 192.443 554.477L175.891 564.025C173.736 565.282 172 564.713 172 562.768C172.155 561.573 172.588 560.43 173.263 559.432C173.939 558.435 174.839 557.609 175.891 557.021Z" fill="#E0E0E0"/>
<path d="M133.299 651.813L230.545 595.662V663.277L232.79 664.564L135.514 720.715L133.299 719.428V651.813Z" fill="#E0E0E0"/>
<path d="M135.514 653.1L232.79 596.949V664.564L135.514 720.715V653.1Z" fill="#F5F5F5"/>
<path d="M173.646 642.564L190.348 633.046C192.503 631.789 194.239 632.358 194.239 634.303C194.084 635.498 193.651 636.641 192.975 637.638C192.3 638.636 191.4 639.462 190.348 640.05L173.796 649.598C171.641 650.855 169.905 650.287 169.905 648.341C170.039 647.154 170.447 646.015 171.096 645.013C171.745 644.01 172.618 643.172 173.646 642.564Z" fill="#E0E0E0"/>
<path d="M123.362 548.73L38.2671 499.583V317.092L123.362 366.209V548.73Z" fill="#E0E0E0"/>
<path d="M123.362 366.209L244.942 296.02V478.541L123.362 548.73V366.209Z" fill="#EBEBEB"/>
<path d="M244.942 296.02L123.362 366.209L38.2671 317.092L159.848 246.903L244.942 296.02Z" fill="#F5F5F5"/>
<path d="M135.514 373.243L232.79 317.092L235.035 318.379V385.994L137.759 442.145L135.514 440.828V373.243Z" fill="#E0E0E0"/>
<path d="M175.891 363.964L192.413 354.416C194.568 353.189 196.304 353.758 196.304 355.703C196.144 356.897 195.71 358.037 195.035 359.034C194.359 360.032 193.462 360.859 192.413 361.45L175.891 370.998C173.736 372.225 172 371.687 172 369.741C172.157 368.543 172.591 367.397 173.266 366.395C173.941 365.393 174.84 364.561 175.891 363.964Z" fill="#E0E0E0"/>
<path d="M133.299 458.786L230.545 402.635V470.22L232.79 471.507L135.514 527.658L133.299 526.371V458.786Z" fill="#E0E0E0"/>
<path d="M135.514 460.074L232.79 403.923V471.507L135.514 527.658V460.074Z" fill="#F5F5F5"/>
<path d="M173.646 449.508L190.348 439.96C192.473 438.733 194.239 439.301 194.239 441.247C194.07 442.438 193.632 443.574 192.958 444.57C192.284 445.566 191.391 446.395 190.348 446.994L173.646 456.452C171.491 457.679 169.755 457.11 169.755 455.195C169.926 454.012 170.365 452.885 171.04 451.899C171.714 450.913 172.606 450.095 173.646 449.508Z" fill="#E0E0E0"/>
<path d="M135.514 373.243L232.79 317.092V384.677L135.514 440.828V373.243Z" fill="#E0E0E0"/>
<path d="M281.428 350.495L228.181 319.756V379.319L281.428 410.029V350.495Z" fill="#E0E0E0"/>
<path d="M172 450.466V366.209L192.862 354.117L196.304 359.205L257.094 324.096V401.319L172 450.466Z" fill="#EBEBEB"/>
<path d="M172 450.466L178.076 376.745L263.17 327.628L257.094 401.319L172 450.466Z" fill="#F5F5F5"/>
<path d="M184.152 406.646L137.759 379.858V439.421L184.152 466.18V406.646Z" fill="#EBEBEB"/>
<path d="M184.152 401.319L281.429 345.168V412.752L184.152 468.903V401.319Z" fill="#F5F5F5"/>
<path d="M222.284 390.753L238.806 381.205C240.961 379.978 242.697 380.546 242.697 382.492C242.536 383.685 242.1 384.824 241.425 385.821C240.75 386.818 239.854 387.645 238.806 388.239L222.284 397.787C220.129 399.014 218.393 398.445 218.393 396.53C218.551 395.331 218.984 394.186 219.659 393.184C220.335 392.181 221.233 391.349 222.284 390.753Z" fill="#E0E0E0"/>
<path d="M184.152 401.319L180.919 399.463V467.047L184.152 468.903V401.319Z" fill="#E0E0E0"/>
<path d="M180.919 399.463L278.166 343.282L281.428 345.168L184.152 401.319L180.919 399.463Z" fill="#EBEBEB"/>
<path d="M1128.69 631.19L1043.57 582.043V399.553L1128.69 448.67V631.19Z" fill="#E0E0E0"/>
<path d="M1128.69 448.67L1250.27 378.481V561.002L1128.69 631.19V448.67Z" fill="#EBEBEB"/>
<path d="M1250.27 378.481L1128.69 448.67L1043.57 399.553L1165.18 329.334L1250.27 378.481Z" fill="#F5F5F5"/>
<path d="M1140.84 455.704L1238.12 399.553L1240.37 400.84L1240.34 468.424L1143.09 524.575L1140.84 523.288V455.704Z" fill="#E0E0E0"/>
<path d="M1143.09 456.991L1240.37 400.84L1240.34 468.424L1143.09 524.575V456.991Z" fill="#F5F5F5"/>
<path d="M1181.22 446.425L1197.74 436.877C1199.9 435.65 1201.63 436.218 1201.63 438.134C1201.48 439.332 1201.04 440.478 1200.37 441.48C1199.69 442.482 1198.79 443.314 1197.74 443.911L1181.22 453.459C1179.07 454.686 1177.33 454.117 1177.33 452.202C1177.49 451.003 1177.92 449.858 1178.6 448.856C1179.27 447.853 1180.17 447.021 1181.22 446.425Z" fill="#E0E0E0"/>
<path d="M1138.6 541.247L1235.88 485.066V552.681L1238.12 553.968L1140.84 610.119L1138.6 608.832V541.247Z" fill="#E0E0E0"/>
<path d="M1140.84 542.534L1238.12 486.383V553.968L1140.84 610.119V542.534Z" fill="#F5F5F5"/>
<path d="M1178.98 531.968L1195.53 522.42C1197.65 521.193 1199.39 521.762 1199.39 523.677C1199.23 524.872 1198.8 526.013 1198.13 527.015C1197.46 528.016 1196.57 528.851 1195.53 529.454L1178.98 539.002C1176.82 540.229 1175.09 539.661 1175.09 537.715C1175.25 536.522 1175.68 535.383 1176.36 534.386C1177.03 533.389 1177.93 532.562 1178.98 531.968Z" fill="#E0E0E0"/>
<path d="M319.052 821.942C319.052 821.942 319.381 774.471 289.45 738.883C262.961 707.365 248.863 687.371 257.214 678.153C265.565 668.934 283.524 666.719 307.738 692.22C331.952 717.722 333.838 788.359 330.486 804.343L319.052 821.942Z" fill="#BA68C8"/>
<path opacity="0.2" d="M319.052 821.942C319.052 821.942 319.381 774.471 289.45 738.883C262.961 707.365 248.863 687.371 257.214 678.153C265.565 668.934 283.524 666.719 307.738 692.22C331.952 717.722 333.838 788.359 330.486 804.343L319.052 821.942Z" fill="black"/>
<path d="M324.08 770.909C323.74 770.911 323.409 770.796 323.142 770.584C322.875 770.372 322.689 770.075 322.614 769.742C312.138 720.745 285.26 693.657 270.144 681.864C269.832 681.621 269.627 681.265 269.577 680.872C269.526 680.479 269.634 680.083 269.875 679.769C270.123 679.454 270.485 679.249 270.882 679.199C271.28 679.148 271.681 679.256 272 679.499C287.415 691.472 314.862 719.188 325.547 769.114C325.591 769.304 325.596 769.502 325.563 769.695C325.529 769.888 325.457 770.072 325.351 770.236C325.245 770.401 325.107 770.543 324.945 770.653C324.784 770.764 324.602 770.841 324.41 770.88L324.08 770.909Z" fill="white"/>
<path d="M317.915 839.572L305.733 846.606C304.433 843.055 302.242 839.898 299.369 837.44C296.496 834.981 293.039 833.303 289.33 832.568C276.011 829.575 262.183 830.084 252.844 818.53C243.506 806.977 254.879 794.406 252.844 785.905C250.809 777.405 249.492 774.95 232.79 766.45C216.089 757.949 209.504 743.852 222.075 734.304C234.646 724.755 254.999 731.759 267.331 740.29C278.286 747.773 288.702 749.748 300.944 751.275C313.186 752.801 333.12 759.595 330.067 788.03C328.068 805.631 323.988 822.932 317.915 839.572Z" fill="#BA68C8"/>
<path d="M271.162 802.217C270.843 802.215 270.533 802.112 270.275 801.924C270.018 801.737 269.825 801.473 269.725 801.17C269.612 800.789 269.652 800.379 269.836 800.027C270.021 799.674 270.335 799.408 270.713 799.284C271.791 798.955 297.651 790.754 308.636 799.554C308.909 799.811 309.075 800.161 309.101 800.535C309.128 800.909 309.014 801.28 308.78 801.573C308.547 801.867 308.212 802.062 307.842 802.12C307.471 802.179 307.092 802.096 306.78 801.888C297.083 794.106 271.88 802.068 271.611 802.158L271.162 802.217Z" fill="white"/>
<path d="M319.262 837.297C318.897 837.299 318.545 837.165 318.274 836.922C318.003 836.678 317.832 836.342 317.795 835.98C311.12 772.945 235.185 743.044 234.436 742.744C234.251 742.675 234.081 742.569 233.937 742.433C233.792 742.297 233.677 742.134 233.596 741.953C233.515 741.772 233.471 741.577 233.466 741.379C233.462 741.18 233.496 740.983 233.568 740.799C233.716 740.436 233.996 740.144 234.353 739.982C234.709 739.821 235.114 739.802 235.484 739.931C236.292 740.26 313.904 770.79 320.758 835.711C320.8 836.103 320.685 836.497 320.439 836.805C320.192 837.113 319.834 837.312 319.441 837.357L319.262 837.297Z" fill="white"/>
<path d="M1063.74 798.177C1064.07 797.129 1076.91 731.041 1063.74 684.169C1051.77 641.187 1036.14 625.324 1013.88 621.822C991.607 618.32 981.939 634.363 993.762 656.093C1005.59 677.823 1034.05 706.647 1041.02 755.196C1044.02 775.19 1046.29 792.55 1046.29 792.55L1063.74 798.177Z" fill="#BA68C8"/>
<path opacity="0.2" d="M1063.74 798.177C1064.07 797.129 1076.91 731.041 1063.74 684.169C1051.77 641.187 1036.14 625.324 1013.88 621.822C991.607 618.32 981.939 634.363 993.762 656.093C1005.59 677.823 1034.05 706.647 1041.02 755.196C1044.02 775.19 1046.29 792.55 1046.29 792.55L1063.74 798.177Z" fill="black"/>
<path d="M1056.23 760.224C1056.03 760.213 1055.84 760.162 1055.66 760.076C1055.49 759.99 1055.33 759.87 1055.2 759.723C1055.07 759.576 1054.96 759.404 1054.9 759.218C1054.84 759.031 1054.81 758.834 1054.82 758.638C1057.81 705.121 1040.34 657.35 1009 633.914C1008.68 633.676 1008.47 633.322 1008.41 632.929C1008.36 632.536 1008.46 632.137 1008.7 631.819C1008.94 631.508 1009.29 631.303 1009.69 631.247C1010.08 631.191 1010.47 631.289 1010.79 631.52C1042.91 655.465 1060.93 704.312 1057.78 758.817C1057.76 759.209 1057.59 759.576 1057.29 759.839C1057 760.102 1056.62 760.24 1056.23 760.224Z" fill="white"/>
<path d="M1098.19 832.598C1096.49 820.296 1103.55 801.858 1120.34 797.488C1137.13 793.118 1144.62 783.481 1138.57 772.945C1132.52 762.409 1133.93 752.741 1149.17 748.371C1164.4 744.001 1177.75 736.399 1168.98 720.296C1162.6 708.652 1161.2 701.11 1176.82 678.182C1189.78 659.146 1179.19 647.982 1162.96 650.077C1146.74 652.172 1136.71 671.508 1126.57 674.74C1116.42 677.973 1114.09 660.733 1100.71 668.455C1087.33 676.177 1088.14 695.962 1087.72 709.76C1087.3 723.558 1086.4 726.671 1074.31 724.995C1062.21 723.319 1050.36 725.294 1050.63 754.537C1050.84 779.619 1064.22 810.688 1064.22 810.688L1098.19 832.598Z" fill="#BA68C8"/>
<path d="M1076.97 813.891H1076.82C1076.42 813.846 1076.05 813.644 1075.8 813.33C1075.55 813.016 1075.43 812.615 1075.47 812.215C1083.92 736.818 1148.63 673.214 1165.51 660.313C1165.83 660.071 1166.23 659.965 1166.62 660.019C1167.02 660.072 1167.38 660.28 1167.62 660.598C1167.86 660.915 1167.97 661.316 1167.91 661.712C1167.86 662.108 1167.65 662.466 1167.33 662.708C1150.66 675.429 1086.79 738.195 1078.47 812.544C1078.42 812.912 1078.25 813.251 1077.97 813.499C1077.7 813.747 1077.34 813.886 1076.97 813.891Z" fill="white"/>
<path d="M1106.48 733.286C1106.18 733.284 1105.88 733.192 1105.63 733.021C1105.38 732.851 1105.19 732.609 1105.08 732.328C1104.95 731.951 1104.97 731.538 1105.14 731.176C1105.3 730.814 1105.6 730.53 1105.97 730.383C1130.1 721.403 1157.46 725.653 1158.62 725.833C1159.01 725.899 1159.36 726.115 1159.59 726.434C1159.82 726.754 1159.91 727.151 1159.85 727.539C1159.78 727.925 1159.56 728.27 1159.24 728.503C1158.93 728.736 1158.53 728.841 1158.14 728.796C1157.88 728.796 1130.4 724.486 1107.02 733.196C1106.85 733.255 1106.67 733.285 1106.48 733.286Z" fill="white"/>
<path d="M1084.99 778.602C1084.78 778.599 1084.58 778.553 1084.38 778.465C1084.19 778.378 1084.02 778.251 1083.89 778.093C1073.85 766.409 1067.05 752.303 1064.16 737.177C1064.13 736.982 1064.14 736.784 1064.19 736.593C1064.23 736.402 1064.32 736.222 1064.43 736.063C1064.55 735.905 1064.7 735.771 1064.87 735.669C1065.04 735.568 1065.22 735.5 1065.42 735.471C1065.61 735.441 1065.81 735.45 1066 735.497C1066.19 735.544 1066.37 735.629 1066.53 735.745C1066.69 735.862 1066.82 736.009 1066.93 736.178C1067.03 736.346 1067.09 736.533 1067.12 736.728C1069.99 751.259 1076.53 764.811 1086.13 776.088C1086.32 776.308 1086.44 776.577 1086.48 776.863C1086.52 777.15 1086.48 777.441 1086.36 777.705C1086.24 777.968 1086.05 778.192 1085.8 778.351C1085.56 778.51 1085.28 778.597 1084.99 778.602Z" fill="white"/>
<path d="M317.915 376.326V839.602L792.085 565.851L792.055 144.688L439.495 348.25L427.313 313.141L317.915 376.326Z" fill="#BA68C8"/>
<path opacity="0.7" d="M317.915 376.326V839.602L792.085 565.851L792.055 144.688L439.495 348.25L427.313 313.141L317.915 376.326Z" fill="black"/>
<path d="M317.915 839.602L342.219 418.439L816.39 144.688L792.085 565.851L317.915 839.602Z" fill="#E0E0E0"/>
<path d="M317.915 839.602L354.371 425.473L828.542 151.692L792.085 565.851L317.915 839.602Z" fill="#BA68C8"/>
<path opacity="0.7" d="M317.915 839.602L354.371 425.473L828.542 151.692L792.085 565.851L317.915 839.602Z" fill="black"/>
<path d="M390.857 418.439V881.745L865.028 607.964V186.801L512.438 390.364L500.286 355.254L390.857 418.439Z" fill="#BA68C8"/>
<path opacity="0.5" d="M390.857 418.439V881.745L865.028 607.964V186.801L512.438 390.364L500.286 355.254L390.857 418.439Z" fill="black"/>
<path d="M390.857 881.745L415.161 460.552L889.332 186.801L865.028 607.964L390.857 881.745Z" fill="#E0E0E0"/>
<path d="M390.857 881.745L427.313 467.586L901.484 193.805L865.028 607.964L390.857 881.745Z" fill="#BA68C8"/>
<path opacity="0.5" d="M390.857 881.745L427.313 467.586L901.484 193.805L865.028 607.964L390.857 881.745Z" fill="black"/>
<path d="M791.966 1029.16C706.841 980.009 627.883 926.582 591.845 863.906L701.394 800.661L791.966 1029.16Z" fill="#E0E0E0"/>
<path d="M475.952 467.586V930.862L950.122 657.111V235.948L597.532 439.511L585.38 404.401L475.952 467.586Z" fill="#BA68C8"/>
<path opacity="0.2" d="M475.952 467.586V930.862L950.122 657.111V235.948L597.532 439.511L585.38 404.401L475.952 467.586Z" fill="black"/>
<path d="M612.558 604.552C611.361 604.552 611.181 603.175 611.181 602.367V207.274C611.277 205.742 611.727 204.252 612.496 202.923C613.264 201.593 614.331 200.46 615.611 199.612L957.845 2.06574C958.313 1.77342 958.849 1.60834 959.401 1.58683C960.598 1.58683 960.778 2.96368 960.778 3.77182V398.864C960.684 400.401 960.235 401.896 959.467 403.231C958.698 404.565 957.631 405.704 956.348 406.556L614.114 604.103C613.641 604.381 613.106 604.535 612.558 604.552Z" fill="white"/>
<path d="M959.221 2.96366C959.246 3.18249 959.246 3.40333 959.221 3.62216V398.714C959.123 399.989 958.741 401.225 958.104 402.333C957.468 403.441 956.591 404.393 955.54 405.12L613.306 602.666L612.707 602.935C612.668 602.718 612.668 602.495 612.707 602.277V207.185C612.81 205.915 613.194 204.685 613.831 203.582C614.467 202.48 615.341 201.533 616.389 200.809L958.623 3.26297C958.812 3.13094 959.026 3.03925 959.251 2.9936M959.431 0.000478165C958.616 0.024744 957.821 0.262102 957.126 0.688907L614.892 198.235C613.388 199.223 612.136 200.55 611.237 202.11C610.338 203.669 609.816 205.417 609.714 207.214V602.307C609.714 604.641 610.882 605.988 612.707 605.988C613.523 605.967 614.318 605.729 615.012 605.3L957.246 407.754C958.757 406.772 960.014 405.447 960.914 403.886C961.814 402.326 962.332 400.574 962.424 398.774V3.68203C962.424 1.34739 961.257 -0.0294531 959.431 0.000478165Z" fill="#BA68C8"/>
<path opacity="0.7" d="M959.221 2.96366C959.246 3.18249 959.246 3.40333 959.221 3.62216V398.714C959.123 399.989 958.741 401.225 958.104 402.333C957.468 403.441 956.591 404.393 955.54 405.12L613.306 602.666L612.707 602.935C612.668 602.718 612.668 602.495 612.707 602.277V207.185C612.81 205.915 613.194 204.685 613.831 203.582C614.467 202.48 615.341 201.533 616.389 200.809L958.623 3.26297C958.812 3.13094 959.026 3.03925 959.251 2.9936M959.431 0.000478165C958.616 0.024744 957.821 0.262102 957.126 0.688907L614.892 198.235C613.388 199.223 612.136 200.55 611.237 202.11C610.338 203.669 609.816 205.417 609.714 207.214V602.307C609.714 604.641 610.882 605.988 612.707 605.988C613.523 605.967 614.318 605.729 615.012 605.3L957.246 407.754C958.757 406.772 960.014 405.447 960.914 403.886C961.814 402.326 962.332 400.574 962.424 398.774V3.68203C962.424 1.34739 961.257 -0.0294531 959.431 0.000478165Z" fill="white"/>
<path d="M646.171 222.27L767.751 152.081V292.459L646.171 362.647V222.27Z" fill="#BA68C8"/>
<path opacity="0.8" d="M646.171 222.27L767.751 152.081V292.459L646.171 362.647V222.27Z" fill="white"/>
<path d="M749.523 187.071V229.274L745.692 231.399V218.499C745.692 211.375 739.915 208.95 732.732 213.081L681.22 242.863C674.067 246.993 668.26 256.122 668.26 263.246V276.146L664.459 278.421V236.308L749.523 187.071Z" fill="white"/>
<path d="M726.117 294.524C719.891 298.116 714.833 294.344 714.833 286.053V218.499L699.179 226.999V295.093C699.179 303.354 694.12 313.051 687.895 316.553L676.581 323.078V327.568L737.371 292.459V287.999L726.117 294.524Z" fill="white"/>
<path d="M791.966 145.167C791.966 149.058 795.468 150.166 799.748 147.711L918.036 79.3183C920.135 78.1287 921.93 76.4692 923.28 74.4699C924.63 72.4707 925.499 70.186 925.818 67.7947C925.818 63.9336 922.316 62.7962 918.036 65.2805L799.838 133.524C797.704 134.711 795.88 136.384 794.513 138.406C793.145 140.429 792.273 142.745 791.966 145.167Z" fill="#455A64"/>
<path d="M791.966 187.071C791.966 190.962 795.468 192.099 799.748 189.615L917.946 121.372C920.045 120.182 921.84 118.523 923.19 116.523C924.54 114.524 925.409 112.239 925.728 109.848C925.728 105.987 922.226 104.85 917.946 107.334L799.748 175.577C797.653 176.764 795.86 178.419 794.51 180.412C793.16 182.406 792.289 184.685 791.966 187.071Z" fill="#455A64"/>
<path d="M791.966 229.274C791.966 233.165 795.468 234.302 799.748 231.818L917.946 163.575C920.041 162.388 921.834 160.733 923.184 158.74C924.534 156.746 925.405 154.467 925.728 152.081C925.728 148.19 922.226 147.053 917.946 149.537L799.748 217.78C797.653 218.967 795.86 220.622 794.51 222.615C793.16 224.609 792.289 226.888 791.966 229.274Z" fill="#455A64"/>
<path d="M791.966 271.387C791.966 275.278 795.468 276.415 799.748 273.931L917.946 205.688C920.041 204.501 921.834 202.847 923.184 200.853C924.534 198.859 925.405 196.58 925.728 194.194C925.728 190.303 922.226 189.166 917.946 191.65L799.748 259.893C797.653 261.08 795.86 262.735 794.51 264.729C793.16 266.722 792.289 269.001 791.966 271.387Z" fill="#455A64"/>
<path d="M646.171 397.757C646.171 401.648 649.643 402.785 653.953 400.301L918.036 247.652C920.134 246.469 921.929 244.815 923.279 242.82C924.63 240.826 925.499 238.545 925.818 236.158C925.818 232.267 922.316 231.159 918.036 233.614L653.953 386.263C651.853 387.444 650.057 389.098 648.707 391.092C647.356 393.087 646.488 395.369 646.171 397.757Z" fill="#455A64"/>
<path d="M646.171 439.87C646.171 443.761 649.643 444.898 653.953 442.414L918.036 289.944C920.135 288.755 921.93 287.095 923.28 285.096C924.63 283.097 925.499 280.812 925.818 278.421C925.818 274.56 922.316 273.422 918.036 275.907L653.953 428.376C651.853 429.558 650.057 431.211 648.707 433.206C647.356 435.2 646.488 437.482 646.171 439.87Z" fill="#455A64"/>
<path d="M646.171 482.013C646.171 485.874 649.643 487.012 653.953 484.527L918.036 332.058C920.135 330.868 921.93 329.209 923.28 327.209C924.63 325.21 925.499 322.925 925.818 320.534C925.818 316.673 922.316 315.536 918.036 318.02L653.953 470.49C651.849 471.674 650.051 473.332 648.7 475.332C647.349 477.332 646.483 479.62 646.171 482.013Z" fill="#455A64"/>
<path d="M475.952 930.862L561.046 558.847L1035.22 285.066L950.122 657.111L475.952 930.862Z" fill="#BA68C8"/>
<path d="M591.965 587.97V863.906L701.394 800.721V524.815L591.965 587.97Z" fill="#BA68C8"/>
<path opacity="0.2" d="M591.965 587.97V863.906L701.394 800.721V524.815L591.965 587.97Z" fill="black"/>
<path d="M792.175 1027.36C782.867 1020.42 693.133 951.844 647.518 853.759C598.969 749.479 599.029 627.838 599.029 582.073V580.637L924.322 392.848C924.322 439.032 924.322 560.852 973.08 665.492C1017.65 761.272 1103.94 828.976 1117.62 839.332L792.175 1027.36Z" fill="white"/>
<path d="M922.825 395.542C922.825 443.671 923.753 563.157 971.733 666.24C1014.8 758.727 1096.7 825.235 1114.92 839.272L792.265 1025.56C779.664 1016.08 693.312 948.641 648.894 853.25C600.406 749.269 600.406 627.868 600.406 582.163V581.594L922.705 395.512M925.698 390.334L597.413 579.888C597.413 622.959 596.515 748.102 646.051 854.507C694.809 958.937 791.966 1029.16 791.966 1029.16L1120.34 839.572C1120.34 839.572 1023.06 769.353 974.456 664.923C924.89 558.517 925.818 433.375 925.818 390.304L925.698 390.334Z" fill="#BA68C8"/>
<path opacity="0.7" d="M922.825 395.542C922.825 443.671 923.753 563.157 971.733 666.24C1014.8 758.727 1096.7 825.235 1114.92 839.272L792.265 1025.56C779.664 1016.08 693.312 948.641 648.894 853.25C600.406 749.269 600.406 627.868 600.406 582.163V581.594L922.705 395.512M925.698 390.334L597.413 579.888C597.413 622.959 596.515 748.102 646.051 854.507C694.809 958.937 791.966 1029.16 791.966 1029.16L1120.34 839.572C1120.34 839.572 1023.06 769.353 974.456 664.923C924.89 558.517 925.818 433.375 925.818 390.304L925.698 390.334Z" fill="white"/>
<path d="M888.674 453.908L784.872 513.77C782.794 514.914 781.023 516.543 779.71 518.518C778.397 520.493 777.58 522.756 777.329 525.114C777.479 528.915 781.101 529.993 785.381 527.509L889.212 467.646C891.265 466.513 893.018 464.906 894.325 462.959C895.632 461.012 896.454 458.781 896.725 456.452C896.545 452.501 892.984 451.423 888.674 453.908Z" fill="#455A64"/>
<path d="M890.888 494.764L787.087 554.626C785.034 555.73 783.293 557.336 782.027 559.293C780.761 561.25 780.01 563.495 779.844 565.821C780.173 569.502 783.944 570.49 788.224 568.006L892.056 508.143C894.099 507.044 895.828 505.441 897.079 503.488C898.331 501.535 899.064 499.294 899.209 496.979C898.91 493.267 895.199 492.369 890.888 494.764Z" fill="#455A64"/>
<path d="M895.049 534.483L791.217 594.345C786.937 596.829 783.824 601.768 784.333 605.33C784.842 608.892 788.763 609.82 793.073 607.335L896.905 547.473C901.185 544.989 904.238 540.08 903.699 536.518C903.16 532.956 899.329 531.998 895.049 534.483Z" fill="#455A64"/>
<path d="M901.275 573.004L797.443 632.867C793.163 635.351 790.2 640.2 790.918 643.672C791.636 647.144 795.707 647.922 799.897 645.438L903.699 585.575C908.009 583.091 910.882 578.272 910.164 574.8C909.446 571.328 905.704 570.52 901.275 573.004Z" fill="#455A64"/>
<path d="M909.715 610.239L805.884 670.101C801.604 672.585 798.82 677.314 799.897 680.637C800.975 683.959 805.076 684.708 809.356 682.223L913.187 622.361C917.497 619.876 920.191 615.177 919.173 611.825C918.156 608.473 913.995 607.754 909.715 610.239Z" fill="#455A64"/>
<path d="M920.67 646.126L667.631 792.221C663.351 794.705 660.747 799.314 661.914 802.517C663.082 805.72 667.541 806.318 671.822 803.834L924.86 657.739C929.17 655.255 931.655 650.676 930.487 647.443C929.32 644.211 924.801 643.642 920.67 646.126Z" fill="#455A64"/>
<path d="M933.989 680.397L680.981 826.492C676.671 828.976 674.306 833.466 675.743 836.519C677.179 839.572 681.729 840.051 686.099 837.566L939.138 691.472C943.448 688.988 945.752 684.498 944.316 681.445C942.879 678.392 938.3 677.943 933.989 680.397Z" fill="#455A64"/>
<path d="M950.601 713.052L697.562 859.147C693.252 861.631 691.127 866.001 692.833 868.904C694.539 871.808 699.418 872.107 703.728 869.623L956.587 723.528C960.868 721.074 962.933 716.734 961.227 713.831C959.521 710.927 954.792 710.568 950.601 713.052Z" fill="#455A64"/>
<path d="M969.967 743.941L716.958 890.006C712.648 892.49 710.732 896.77 712.678 899.494C714.623 902.218 719.742 902.487 724.052 899.973L977.06 753.879C981.371 751.394 983.226 747.174 981.281 744.42C979.335 741.667 974.277 741.457 969.967 743.941Z" fill="#455A64"/>
<path d="M992.056 773.304L739.017 919.368C734.737 921.853 733.031 926.013 735.186 928.617C737.341 931.221 742.639 931.341 746.949 928.857L999.988 782.702C1004.27 780.218 1005.97 776.117 1003.76 773.513C1001.54 770.909 996.366 770.73 992.056 773.304Z" fill="#455A64"/>
<path d="M1016.45 801.26L763.501 947.324C759.191 949.808 757.515 953.879 760.029 956.304C762.543 958.728 767.871 958.788 772.151 956.304L1025.19 810.209C1029.5 807.725 1031 803.714 1028.6 801.23C1026.21 798.746 1020.82 798.805 1016.45 801.26Z" fill="#455A64"/>
<path d="M1043.39 827.988L790.349 974.053C786.069 976.537 784.662 980.518 787.356 982.882C790.05 985.247 795.557 985.157 799.868 982.673L1052.7 836.579C1056.98 834.094 1058.32 830.203 1055.69 827.809C1053.06 825.414 1047.58 825.504 1043.39 827.988Z" fill="#455A64"/>
<path d="M747.248 535.59L627.883 604.432C629.2 647.683 634.138 710.059 652.217 772.885L771.612 704.043C753.504 641.217 748.565 578.811 747.248 535.59Z" fill="#BA68C8"/>
<path opacity="0.8" d="M747.248 535.59L627.883 604.432C629.2 647.683 634.138 710.059 652.217 772.885L771.612 704.043C753.504 641.217 748.565 578.811 747.248 535.59Z" fill="white"/>
<path d="M676.551 594.914C676.712 592.122 676.277 589.328 675.276 586.717C674.275 584.106 672.73 581.737 670.744 579.769L627.883 604.492C628.242 615.925 628.84 628.706 629.888 642.475C635.463 643.116 641.103 642.073 646.081 639.481C662.932 631.759 676.551 611.735 676.551 594.914Z" fill="#BA68C8"/>
<path opacity="0.6" d="M676.551 594.914C676.712 592.122 676.277 589.328 675.276 586.717C674.275 584.106 672.73 581.737 670.744 579.769L627.883 604.492C628.242 615.925 628.84 628.706 629.888 642.475C635.463 643.116 641.103 642.073 646.081 639.481C662.932 631.759 676.551 611.735 676.551 594.914Z" fill="white"/>
<path d="M761.466 662.738C753.504 652.711 737.311 621.732 730.397 608.233C730.125 607.7 729.7 607.26 729.176 606.971C728.651 606.681 728.052 606.556 727.456 606.611C726.86 606.666 726.294 606.898 725.831 607.278C725.368 607.658 725.03 608.168 724.86 608.742C717.38 634.311 713.038 660.694 711.93 687.312C701.961 679.398 693.391 669.867 686.578 659.116C686.287 658.7 685.884 658.375 685.415 658.18C684.946 657.985 684.431 657.929 683.931 658.017C683.431 658.105 682.966 658.334 682.592 658.677C682.218 659.021 681.95 659.464 681.819 659.954C668.769 710.209 675.324 759.655 675.324 759.655L771.613 704.043C767.602 690.155 764.279 676.327 761.466 662.738Z" fill="#BA68C8"/>
<path opacity="0.6" d="M761.466 662.738C753.504 652.711 737.311 621.732 730.397 608.233C730.125 607.7 729.7 607.26 729.176 606.971C728.651 606.681 728.052 606.556 727.456 606.611C726.86 606.666 726.294 606.898 725.831 607.278C725.368 607.658 725.03 608.168 724.86 608.742C717.38 634.311 713.038 660.694 711.93 687.312C701.961 679.398 693.391 669.867 686.578 659.116C686.287 658.7 685.884 658.375 685.415 658.18C684.946 657.985 684.431 657.929 683.931 658.017C683.431 658.105 682.966 658.334 682.592 658.677C682.218 659.021 681.95 659.464 681.819 659.954C668.769 710.209 675.324 759.655 675.324 759.655L771.613 704.043C767.602 690.155 764.279 676.327 761.466 662.738Z" fill="white"/>
</svg>
